<svg width="24" height="24" viewBox="0 0 24 24" fill="none" xmlns="http://www.w3.org/2000/svg">
<g clip-path="url(#clip0_733_271)">
<path d="M0 2C0 1.44772 0.447715 1 1 1H4C4.55228 1 5 1.44772 5 2V15H0V2Z" fill="#F4F5F8"/>
<path d="M7 2C7 1.44772 7.44772 1 8 1H11C11.5523 1 12 1.44772 12 2V15H7V2Z" fill="#F4F5F8"/>
<path d="M13.4213 3.03058C13.2738 2.49835 13.5858 1.94735 14.118 1.79989L17.0091 0.998897C17.5413 0.851439 18.0923 1.16336 18.2398 1.6956L21.7107 14.2237L16.8922 15.5587L13.4213 3.03058Z" fill="#F4F5F8"/>
<path d="M5 22.0001C5 22.5524 4.55228 23.0001 4 23.0001H1C0.447715 23.0001 -4.82823e-08 22.5524 0 22.0001L5.24536e-07 16.0001H5V22.0001Z" fill="#F4F5F8"/>
<path d="M12 22C12 22.5523 11.5523 23 11 23H8C7.44772 23 7 22.5523 7 22V16H12V22Z" fill="#F4F5F8"/>
<path d="M23.5787 20.9695C23.7262 21.5018 23.4142 22.0528 22.882 22.2002L19.9909 23.0012C19.4587 23.1487 18.9077 22.8367 18.7602 22.3045L17.1582 16.5223L21.9767 15.1873L23.5787 20.9695Z" fill="#F4F5F8"/>
</g>
<defs>
<clipPath id="clip0_733_271">
<rect width="24" height="24" fill="white"/>
</clipPath>
</defs>
</svg>
