<svg width="267" height="221" viewBox="0 0 267 221" fill="none" xmlns="http://www.w3.org/2000/svg">
<g clip-path="url(#clip0_695_271)">
<path d="M169.073 17.8423L180.56 80.6709L200.797 60.4336L201.649 61.8017C210.269 75.3019 215.1 90.8718 215.635 106.88C216.17 122.889 212.391 138.747 204.692 152.793C196.993 166.839 185.659 178.556 171.877 186.716C158.094 194.877 142.37 199.181 126.353 199.178C122.823 199.174 119.296 198.942 115.796 198.481L110.865 197.836L107.277 218.176L112.75 218.796C117.266 219.318 121.807 219.585 126.353 219.596C146.545 219.719 166.379 214.268 183.672 203.843C200.965 193.419 215.046 178.425 224.365 160.512C233.685 142.599 237.881 122.462 236.491 102.318C235.102 82.174 228.182 62.8037 216.492 46.3397L215.872 45.4621L234.767 26.6703L169.073 17.8423Z" fill="#A6A6A6"/>
<path d="M36.9112 175.172L17.9387 194.041L83.5035 202.869L72.1458 140.041L52.0118 160.175L51.0567 158.807C42.3995 145.279 37.5375 129.674 36.9796 113.623C36.4217 97.5725 40.1884 81.6669 47.8854 67.5711C55.5824 53.4753 66.9268 41.7075 80.7312 33.4994C94.5356 25.2913 110.293 20.9446 126.353 20.9143C129.883 20.9179 133.41 21.1507 136.91 21.6112L141.789 22.2566L145.454 1.76111L140.292 0.935096C135.677 0.263346 131.016 -0.0473512 126.353 0.00583059C97.0967 0.0399885 69.0486 11.6771 48.3613 32.3644C27.674 53.0517 16.0369 81.0998 16.0028 110.356C15.8394 133.273 22.9324 155.655 36.2659 174.295L36.9112 175.172Z" fill="#A6A6A6"/>
<g filter="url(#filter0_d_695_271)">
<path d="M88.008 5H17C9.8203 5 4 10.8203 4 18V89.008C4 96.1877 9.8203 102.008 17 102.008H88.008C95.1877 102.008 101.008 96.1877 101.008 89.008V18C101.008 10.8203 95.1877 5 88.008 5Z" fill="#3F4142"/>
</g>
<path d="M52.6203 14.2605C31.4995 14.2605 14.377 31.3641 14.377 52.462C14.377 73.5609 31.4995 90.6631 52.6203 90.6631C73.7433 90.6631 90.864 73.5609 90.864 52.462C90.864 31.3655 73.7433 14.2623 52.6198 14.2623L52.6203 14.2605ZM70.1584 69.3581C69.4734 70.4803 68.0029 70.8361 66.8795 70.1473C57.9003 64.6685 46.5967 63.4277 33.2847 66.4659C32.0019 66.7578 30.7232 65.955 30.4309 64.6731C30.1373 63.3912 30.9378 62.1139 32.2238 61.822C46.7917 58.4973 59.2877 59.9288 69.3684 66.0827C70.4918 66.7715 70.848 68.2359 70.1584 69.3581ZM74.8393 58.9562C73.9762 60.3576 72.1404 60.8001 70.7384 59.9379C60.4586 53.6262 44.7888 51.7983 32.6298 55.4851C31.0529 55.9609 29.3874 55.0732 28.9088 53.5008C28.4339 51.9256 29.323 50.2651 30.8972 49.7861C44.786 45.5764 62.0524 47.6156 73.8575 54.862C75.2595 55.7242 75.7024 57.5576 74.8393 58.9562ZM75.2412 48.1247C62.9155 40.8116 42.5798 40.1392 30.8118 43.707C28.922 44.2795 26.9236 43.2139 26.351 41.3262C25.7783 39.4376 26.8442 37.4427 28.7353 36.8688C42.2442 32.7723 64.7011 33.5638 78.8919 41.979C80.5953 42.9867 81.1524 45.1796 80.1432 46.8752C79.1385 48.5731 76.9373 49.1328 75.243 48.1247H75.2412Z" fill="white"/>
<g filter="url(#filter1_d_695_271)">
<path d="M250 112.134H178.992C171.812 112.134 165.992 117.954 165.992 125.134V196.142C165.992 203.322 171.812 209.142 178.992 209.142H250C257.18 209.142 263 203.322 263 196.142V125.134C263 117.954 257.18 112.134 250 112.134Z" fill="#3F4142"/>
</g>
<path d="M229.08 146.231C229.08 146.596 229.051 146.961 228.981 147.326C228.656 149.221 227.461 150.87 225.635 151.955C223.868 153.298 221.726 154.265 218.695 154.788C218.043 154.897 217.54 154.956 216.948 155.065C216.799 155.094 216.671 155.005 216.641 154.857C216.523 154.314 216.266 153.219 216.168 152.755C216.138 152.597 216.227 152.459 216.385 152.439C218.606 152.084 220.462 151.363 222.387 150.613C223.364 150.228 224.213 149.537 224.559 148.846C225.428 147.099 224.687 145.352 224.174 144.671C223.493 143.763 222.733 143.201 221.005 143.141C220.324 143.112 219.564 143.26 218.744 143.546C218.586 143.605 218.073 143.911 217.727 144.109C217.54 144.227 217.362 144.326 217.234 144.395L217.145 144.494H217.007C216.493 144.642 215.714 144.405 215.536 143.822C215.289 143.033 215.644 142.608 215.98 142.391C216.039 142.362 216.799 142.016 217.333 141.73C217.836 141.473 218.182 141.187 218.488 140.773C219.771 139.016 219.534 137.259 218.724 136.301C217.974 135.413 216.513 135.097 214.825 135.472C214.075 135.65 212.081 136.588 211.143 137.387C210.975 137.525 210.935 137.703 210.945 137.92C211.054 140.694 214.016 155.726 214.43 157.858C214.45 157.957 214.42 158.045 214.341 158.114C214.055 158.361 213.295 159.003 212.762 159.447C212.604 159.585 212.357 159.496 212.318 159.289C211.696 156.111 208.744 137.298 208.724 137.091C208.704 136.933 208.773 136.736 208.862 136.578C209.001 136.341 210.817 134.564 212.446 133.755C214.055 132.965 215.566 132.61 217.352 132.61C218.616 132.61 220.403 133.232 221.202 134.268C222.515 135.946 222.584 137.812 221.39 140.249C222.13 140.171 223.019 140.111 223.364 140.111C224.934 140.111 226.543 140.881 227.57 142.115C228.557 143.289 229.08 144.74 229.08 146.231Z" fill="url(#paint0_linear_695_271)"/>
<path d="M215.396 166.06C214.892 166.524 214.122 167.234 213.826 167.511C213.757 167.57 213.727 167.659 213.737 167.758C213.984 169.505 213.994 169.278 214.181 170.975C214.201 171.123 214.329 171.242 214.477 171.222C215.011 171.173 215.929 171.044 216.383 170.985C216.541 170.965 216.639 170.827 216.62 170.669C216.373 168.784 216.294 168.883 215.85 166.238C215.81 166.02 215.553 165.922 215.386 166.07L215.396 166.06ZM217.409 180.391C217.39 179.957 217.37 179.404 217.321 178.684C217.311 178.516 217.153 178.388 216.995 178.417C216.481 178.506 215.81 178.605 215.228 178.674C215.08 178.694 214.981 178.832 214.981 178.97C215.011 179.562 215.03 180.016 215.04 180.411V180.53C215.06 180.668 215.05 181.201 215.05 181.211C215.05 184.379 212.77 186.955 209.966 186.955C209.443 186.955 208.92 186.856 208.416 186.679C209.522 185.988 210.371 184.793 210.588 183.54C210.785 182.444 210.548 181.349 209.926 180.46C209.354 179.631 208.505 179.079 207.537 178.911C206.284 178.694 204.99 179.158 204.082 180.164C203.549 180.747 203.194 181.477 203.055 182.257C202.917 182.967 202.75 184.774 203.974 186.254C205.336 188.149 207.636 189.334 209.966 189.334C214.083 189.334 217.429 185.692 217.429 181.211C217.429 181.141 217.419 180.678 217.409 180.391ZM225.139 164.964C225.11 164.461 224.863 163.977 224.379 163.454C224.3 163.365 224.221 163.306 223.343 162.734C222.118 161.914 219.818 160.394 218.229 159.111C217.755 158.716 217.054 158.726 216.59 159.131C216.314 159.368 215.899 159.694 215.494 160.019C215.405 160.098 215.02 160.394 214.951 160.454C213.964 161.293 211.032 163.582 211.032 163.582C210.292 164.194 210.292 165.014 210.667 165.507C210.914 165.823 211.2 166.001 211.526 166.04C211.871 166.08 212.237 165.941 212.602 165.645C212.631 165.616 216.876 161.914 216.995 161.826C217.291 161.599 217.765 161.49 218.16 161.737C218.683 162.082 221.556 164.086 222.227 164.648C222.523 164.895 222.661 165.329 222.652 165.764C222.592 169.297 219.265 172.584 216.797 173.235C212.918 174.252 210.223 172.712 209.354 172.16C206.56 170.373 204.181 166.099 204.823 162.507C205.425 159.092 206.422 158.045 209.492 156.772C209.611 156.723 209.68 156.594 209.66 156.466C209.551 155.933 209.295 154.808 209.087 153.979C209.048 153.821 208.89 153.732 208.732 153.772C203.529 155.163 201.052 158.322 200.637 163.326C200.321 167.185 202.414 171.538 205.731 173.907C208.15 175.634 210.914 177.213 216.58 176.256C221.348 175.456 224.725 171.469 225.11 166.82C225.149 166.376 225.189 165.705 225.149 164.964H225.139Z" fill="url(#paint1_linear_695_271)"/>
<path d="M214.495 125.456C233.896 125.456 249.677 141.234 249.677 160.631C249.677 180.028 233.896 195.805 214.495 195.805C195.095 195.805 179.314 180.028 179.314 160.631C179.314 141.234 195.095 125.456 214.495 125.456ZM214.495 122.394C193.373 122.394 176.252 139.512 176.252 160.631C176.252 181.749 193.373 198.867 214.495 198.867C235.618 198.867 252.739 181.749 252.739 160.631C252.739 139.512 235.618 122.394 214.495 122.394Z" fill="url(#paint2_linear_695_271)"/>
</g>
<defs>
<filter id="filter0_d_695_271" x="0" y="5" width="105.008" height="105.008" filterUnits="userSpaceOnUse" color-interpolation-filters="sRGB">
<feFlood flood-opacity="0" result="BackgroundImageFix"/>
<feColorMatrix in="SourceAlpha" type="matrix" values="0 0 0 0 0 0 0 0 0 0 0 0 0 0 0 0 0 0 127 0" result="hardAlpha"/>
<feOffset dy="4"/>
<feGaussianBlur stdDeviation="2"/>
<feComposite in2="hardAlpha" operator="out"/>
<feColorMatrix type="matrix" values="0 0 0 0 0 0 0 0 0 0 0 0 0 0 0 0 0 0 0.25 0"/>
<feBlend mode="normal" in2="BackgroundImageFix" result="effect1_dropShadow_695_271"/>
<feBlend mode="normal" in="SourceGraphic" in2="effect1_dropShadow_695_271" result="shape"/>
</filter>
<filter id="filter1_d_695_271" x="161.992" y="112.134" width="105.008" height="105.008" filterUnits="userSpaceOnUse" color-interpolation-filters="sRGB">
<feFlood flood-opacity="0" result="BackgroundImageFix"/>
<feColorMatrix in="SourceAlpha" type="matrix" values="0 0 0 0 0 0 0 0 0 0 0 0 0 0 0 0 0 0 127 0" result="hardAlpha"/>
<feOffset dy="4"/>
<feGaussianBlur stdDeviation="2"/>
<feComposite in2="hardAlpha" operator="out"/>
<feColorMatrix type="matrix" values="0 0 0 0 0 0 0 0 0 0 0 0 0 0 0 0 0 0 0.25 0"/>
<feBlend mode="normal" in2="BackgroundImageFix" result="effect1_dropShadow_695_271"/>
<feBlend mode="normal" in="SourceGraphic" in2="effect1_dropShadow_695_271" result="shape"/>
</filter>
<linearGradient id="paint0_linear_695_271" x1="218.902" y1="159.516" x2="218.902" y2="132.61" gradientUnits="userSpaceOnUse">
<stop stop-color="#2EE6B2"/>
<stop offset="0.02" stop-color="#2CDBB7"/>
<stop offset="0.08" stop-color="#29BBC9"/>
<stop offset="0.14" stop-color="#26A0D7"/>
<stop offset="0.22" stop-color="#248AE3"/>
<stop offset="0.31" stop-color="#2379EC"/>
<stop offset="0.42" stop-color="#216DF3"/>
<stop offset="0.57" stop-color="#2166F6"/>
<stop offset="1" stop-color="#2165F8"/>
</linearGradient>
<linearGradient id="paint1_linear_695_271" x1="212.878" y1="189.334" x2="212.878" y2="153.762" gradientUnits="userSpaceOnUse">
<stop stop-color="#2EE6B2"/>
<stop offset="0.43" stop-color="#2DE4B3"/>
<stop offset="0.58" stop-color="#2DDDB6"/>
<stop offset="0.69" stop-color="#2BD1BD"/>
<stop offset="0.78" stop-color="#2AC0C6"/>
<stop offset="0.86" stop-color="#28AAD2"/>
<stop offset="0.92" stop-color="#258FE0"/>
<stop offset="0.98" stop-color="#226FF2"/>
<stop offset="1" stop-color="#2165F8"/>
</linearGradient>
<linearGradient id="paint2_linear_695_271" x1="214.495" y1="198.867" x2="214.495" y2="122.394" gradientUnits="userSpaceOnUse">
<stop stop-color="#2EE6B2"/>
<stop offset="0.74" stop-color="#2487E5"/>
<stop offset="1" stop-color="#2165F8"/>
</linearGradient>
<clipPath id="clip0_695_271">
<rect width="267" height="221" fill="white"/>
</clipPath>
</defs>
</svg>
