<?xml version="1.0" encoding="UTF-8"?>
<svg id="Calque_2" data-name="Calque 2" xmlns="http://www.w3.org/2000/svg" viewBox="0 0 759.09 566.93">
  <defs>
    <style>
      .cls-1 {
        fill: #1d1d1b;
        stroke-width: 0px;
      }
    </style>
  </defs>
  <g id="Calque_2-2" data-name="Calque 2">
    <g>
      <path class="cls-1" d="M390.92,175.78c0,2.68-.22,5.36-.72,8.04-2.39,13.91-11.16,26.02-24.57,33.99-12.97,9.86-28.67,16.99-50.92,20.83-4.75.82-8.47,1.21-12.82,2.02-1.06.2-2.04-.45-2.27-1.5-.87-3.96-2.76-12.07-3.47-15.41-.24-1.12.44-2.14,1.58-2.32,16.3-2.58,29.94-7.91,44.06-13.41,7.17-2.83,13.41-7.9,15.94-12.97,6.38-12.83.94-25.65-2.83-30.66-5-6.67-10.58-10.8-23.26-11.23-5-.22-10.58.87-16.6,2.97-1.16.43-4.93,2.68-7.46,4.13-1.38.87-2.68,1.59-3.62,2.1l-.65.72-1.01.07c-3.77,1.01-9.49-.72-10.8-5-1.81-5.8.8-8.91,3.26-10.51.43-.22,6.02-2.75,9.93-4.86,3.7-1.88,6.23-3.99,8.48-7.03,9.42-12.9,7.68-25.8,1.74-32.83-5.51-6.52-16.23-8.84-28.63-6.09-5.47,1.27-20.13,8.19-27,14.05-1.21,1.03-1.54,2.34-1.48,3.93.77,20.36,22.55,130.75,25.6,146.36.14.71-.09,1.39-.65,1.86-2.12,1.79-7.7,6.49-11.58,9.75-1.19,1-2.98.35-3.28-1.18-4.54-23.32-26.25-161.48-26.4-162.97-.12-1.19.38-2.64,1.01-3.76.98-1.75,14.36-14.77,26.32-20.72,11.81-5.8,22.9-8.41,36.02-8.41,9.28,0,22.39,4.57,28.26,12.17,9.64,12.32,10.15,26.02,1.38,43.92,5.44-.58,11.96-1.01,14.49-1.01,11.52,0,23.34,5.65,30.87,14.71,7.25,8.62,11.09,19.28,11.09,30.22Z"/>
      <path class="cls-1" d="M290.44,321.32c-3.72,3.42-9.34,8.64-11.55,10.63-.5.45-.71,1.12-.62,1.79,1.79,12.85,1.91,11.18,3.27,23.6.12,1.12,1.09,1.96,2.2,1.84,3.94-.39,10.65-1.31,13.99-1.75,1.12-.15,1.88-1.19,1.73-2.31-1.83-13.86-2.42-13.13-5.64-32.56-.27-1.6-2.19-2.35-3.38-1.25ZM305.26,426.55c-.13-3.17-.31-7.23-.64-12.57-.08-1.23-1.21-2.15-2.42-1.94-3.77.67-8.71,1.4-12.94,1.9-1.05.12-1.84,1.14-1.78,2.2.22,4.32.34,7.71.4,10.55l.07.87c.07,1.01,0,4.93,0,5,0,23.26-16.74,42.18-37.32,42.18-3.84,0-7.68-.72-11.38-2.03,8.12-5.07,14.35-13.84,15.94-23.05,1.45-8.04-.29-16.09-4.86-22.61-4.2-6.09-10.44-10.15-17.54-11.38-9.2-1.59-18.7,1.81-25.36,9.2-3.91,4.28-6.52,9.64-7.54,15.36-1.01,5.22-2.25,18.48,6.74,29.35,10,13.91,26.89,22.61,43.99,22.61,30.22,0,54.79-26.74,54.79-59.64,0-.51-.07-3.91-.15-6.02ZM362,313.33c-.22-3.7-2.03-7.25-5.58-11.09-.58-.65-1.16-1.09-7.61-5.29-8.99-6.02-25.87-17.18-37.54-26.6-3.48-2.9-8.62-2.83-12.03.15-2.03,1.74-5.07,4.13-8.04,6.52-.65.58-3.48,2.75-3.99,3.19-7.25,6.16-28.74,22.97-28.74,22.97-5.44,4.49-5.44,10.51-2.68,14.13,1.81,2.32,3.91,3.62,6.3,3.91,2.54.29,5.22-.72,7.9-2.9.22-.22,31.35-27.39,32.22-28.04,2.17-1.67,5.68-2.5,8.53-.65,3.87,2.51,24.95,17.25,29.88,21.36,2.17,1.8,3.16,4.98,3.08,8.17-.43,25.94-24.82,50.11-43.01,54.89-28.47,7.48-48.27-3.84-54.64-7.9-20.51-13.12-37.97-44.51-33.26-70.89,4.45-25.09,11.76-32.76,34.25-42.11.87-.4,1.39-1.3,1.2-2.24-.8-3.93-2.72-12.18-4.2-18.27-.27-1.13-1.46-1.82-2.59-1.52-38.19,10.19-56.41,33.43-59.4,70.16-2.32,28.34,13.04,60.3,37.39,77.69,17.76,12.68,38.02,24.24,79.61,17.28,34.99-5.86,59.82-35.18,62.65-69.31.29-3.26.58-8.19.29-13.62Z"/>
    </g>
    <path class="cls-1" d="M397.38,369.86c-3.86,0-6.8-1.02-8.83-3.05-2.03-2.02-3.05-4.92-3.05-8.67v-54.03c0-3.75.99-6.62,2.97-8.6,1.97-1.98,4.74-2.97,8.29-2.97s6.44.98,8.37,2.97c1.93,1.97,2.89,4.85,2.89,8.6v7.91h-1.52c1.22-6.09,3.91-10.81,8.07-14.15,4.15-3.35,9.53-5.22,16.13-5.63,2.53-.2,4.49.44,5.86,1.9,1.37,1.47,2.1,3.89,2.21,7.23.2,3.14-.43,5.63-1.9,7.45s-3.93,2.94-7.38,3.35l-3.5.3c-5.79.5-10.07,2.18-12.87,5.02-2.79,2.85-4.18,6.95-4.18,12.33v28.31c0,3.75-.99,6.65-2.97,8.67-1.98,2.03-4.85,3.05-8.6,3.05Z"/>
    <path class="cls-1" d="M482.76,370.16c-8.01,0-14.99-1.58-20.92-4.72-5.94-3.14-10.53-7.66-13.77-13.55-3.25-5.88-4.88-12.83-4.88-20.85,0-5.99.91-11.36,2.74-16.13,1.83-4.77,4.49-8.85,7.99-12.25,3.5-3.4,7.69-5.99,12.55-7.76,4.88-1.78,10.3-2.67,16.28-2.67,8.02,0,15,1.58,20.93,4.72,5.94,3.15,10.55,7.61,13.85,13.39,3.3,5.79,4.95,12.69,4.95,20.7,0,6.09-.94,11.51-2.82,16.28s-4.54,8.88-7.99,12.33c-3.45,3.45-7.64,6.07-12.55,7.83-4.92,1.78-10.38,2.67-16.36,2.67ZM482.76,352.96c3.35,0,6.24-.81,8.68-2.43,2.43-1.63,4.36-4.03,5.78-7.23,1.42-3.19,2.13-7.28,2.13-12.25,0-7.4-1.52-12.86-4.56-16.36-3.04-3.5-7.05-5.25-12.02-5.25-3.25,0-6.11.76-8.6,2.29-2.48,1.52-4.41,3.88-5.78,7.08-1.37,3.2-2.05,7.28-2.05,12.25,0,7.41,1.52,12.91,4.56,16.51s7,5.41,11.87,5.41Z"/>
    <path class="cls-1" d="M557.59,370.16c-8.02,0-14.99-1.58-20.93-4.72-5.94-3.14-10.52-7.66-13.77-13.55-3.25-5.88-4.87-12.83-4.87-20.85,0-5.99.91-11.36,2.74-16.13s4.49-8.85,7.99-12.25c3.5-3.4,7.69-5.99,12.55-7.76s10.3-2.67,16.28-2.67c8.01,0,14.99,1.58,20.93,4.72,5.93,3.15,10.55,7.61,13.85,13.39,3.29,5.79,4.94,12.69,4.94,20.7,0,6.09-.93,11.51-2.81,16.28-1.88,4.77-4.54,8.88-7.99,12.33-3.45,3.45-7.64,6.07-12.55,7.83-4.93,1.78-10.38,2.67-16.36,2.67ZM557.59,352.96c3.35,0,6.24-.81,8.68-2.43,2.43-1.63,4.36-4.03,5.78-7.23,1.42-3.19,2.13-7.28,2.13-12.25,0-7.4-1.52-12.86-4.56-16.36-3.04-3.5-7.06-5.25-12.02-5.25-3.25,0-6.11.76-8.6,2.29-2.49,1.52-4.42,3.88-5.78,7.08-1.37,3.2-2.06,7.28-2.06,12.25,0,7.41,1.53,12.91,4.57,16.51,3.04,3.6,7,5.41,11.87,5.41Z"/>
    <path class="cls-1" d="M641.15,369.86c-2.94,0-5.53-.79-7.76-2.36s-4.01-3.93-5.33-7.08l-22.98-52.96c-1.12-2.64-1.52-5.1-1.22-7.38s1.39-4.11,3.28-5.48c1.88-1.37,4.49-2.05,7.83-2.05,2.74,0,4.97.63,6.7,1.9,1.73,1.27,3.25,3.68,4.56,7.23l17.96,45.65h-4.87l18.72-45.81c1.42-3.45,2.99-5.8,4.71-7.08,1.73-1.27,4.11-1.9,7.16-1.9,2.64,0,4.74.68,6.31,2.05,1.58,1.37,2.54,3.17,2.89,5.4.35,2.24-.08,4.67-1.3,7.3l-23.43,53.11c-1.32,3.25-3.07,5.63-5.25,7.16-2.19,1.52-4.85,2.29-7.99,2.29Z"/>
    <path class="cls-1" d="M727.74,370.16c-8.83,0-16.42-1.6-22.75-4.8-6.34-3.19-11.22-7.71-14.61-13.55-3.4-5.83-5.1-12.7-5.1-20.62s1.62-14.49,4.87-20.32c3.25-5.83,7.78-10.4,13.62-13.7,5.83-3.29,12.45-4.95,19.86-4.95,5.38,0,10.25.89,14.61,2.67,4.37,1.78,8.12,4.31,11.27,7.61,3.14,3.3,5.53,7.3,7.15,12.02,1.62,4.71,2.43,9.96,2.43,15.75,0,1.93-.61,3.38-1.83,4.34-1.22.97-2.99,1.45-5.32,1.45h-47.79v-11.88h38.35l-2.43,2.13c0-4.15-.61-7.63-1.83-10.42-1.22-2.79-2.97-4.89-5.25-6.31-2.28-1.42-5.1-2.13-8.44-2.13-3.76,0-6.95.86-9.59,2.58-2.64,1.73-4.66,4.22-6.09,7.46-1.42,3.25-2.13,7.16-2.13,11.72v1.22c0,7.71,1.8,13.39,5.4,17.04,3.6,3.66,8.95,5.48,16.06,5.48,2.43,0,5.22-.3,8.37-.91,3.14-.61,6.09-1.58,8.83-2.89,2.34-1.12,4.42-1.49,6.24-1.14s3.24,1.19,4.26,2.51c1.01,1.32,1.6,2.84,1.75,4.56.16,1.73-.23,3.42-1.14,5.1s-2.43,3.07-4.56,4.18c-3.45,1.93-7.33,3.38-11.64,4.34-4.32.96-8.5,1.45-12.55,1.45Z"/>
    <path class="cls-1" d="M442.09,232.47c-8.01,0-14.99-1.58-20.92-4.72-5.94-3.14-10.53-7.66-13.77-13.55-3.25-5.88-4.88-12.83-4.88-20.85,0-5.99.91-11.36,2.74-16.13,1.83-4.77,4.49-8.85,7.99-12.25,3.5-3.4,7.69-5.99,12.55-7.76,4.88-1.78,10.3-2.67,16.28-2.67,8.02,0,15,1.58,20.93,4.72,5.94,3.15,10.55,7.61,13.85,13.39,3.3,5.79,4.95,12.69,4.95,20.7,0,6.09-.94,11.51-2.82,16.28s-4.54,8.88-7.99,12.33-7.64,6.07-12.55,7.83c-4.92,1.78-10.38,2.67-16.36,2.67ZM442.09,215.27c3.35,0,6.24-.81,8.68-2.43,2.43-1.63,4.36-4.03,5.78-7.23,1.42-3.19,2.13-7.28,2.13-12.25,0-7.4-1.52-12.86-4.56-16.36-3.04-3.5-7.05-5.25-12.02-5.25-3.25,0-6.11.76-8.6,2.29-2.48,1.52-4.41,3.88-5.78,7.08-1.37,3.2-2.05,7.28-2.05,12.25,0,7.41,1.52,12.91,4.56,16.51,3.04,3.6,7,5.41,11.87,5.41Z"/>
    <path class="cls-1" d="M515.08,232.47c-8.01,0-14.99-1.58-20.92-4.72-5.94-3.14-10.53-7.66-13.77-13.55-3.25-5.88-4.88-12.83-4.88-20.85,0-5.99.91-11.36,2.74-16.13,1.83-4.77,4.49-8.85,7.99-12.25,3.5-3.4,7.69-5.99,12.55-7.76,4.88-1.78,10.3-2.67,16.28-2.67,8.02,0,15,1.58,20.93,4.72,5.94,3.15,10.55,7.61,13.85,13.39,3.3,5.79,4.95,12.69,4.95,20.7,0,6.09-.94,11.51-2.82,16.28s-4.54,8.88-7.99,12.33-7.64,6.07-12.55,7.83c-4.92,1.78-10.38,2.67-16.36,2.67ZM515.08,215.27c3.35,0,6.24-.81,8.68-2.43,2.43-1.63,4.36-4.03,5.78-7.23,1.42-3.19,2.13-7.28,2.13-12.25,0-7.4-1.52-12.86-4.56-16.36-3.04-3.5-7.05-5.25-12.02-5.25-3.25,0-6.11.76-8.6,2.29-2.48,1.52-4.41,3.88-5.78,7.08-1.37,3.2-2.05,7.28-2.05,12.25,0,7.41,1.52,12.91,4.56,16.51,3.04,3.6,7,5.41,11.87,5.41Z"/>
    <path class="cls-1" d="M580.37,232.17c-3.75,0-6.62-1.02-8.6-3.05-1.97-2.02-2.97-4.92-2.97-8.67v-86.6c0-3.86.99-6.77,2.97-8.75,1.98-1.97,4.85-2.97,8.6-2.97s6.47.99,8.45,2.97c1.97,1.98,2.97,4.9,2.97,8.75v53.11h.3l22.07-24.5c2.23-2.53,4.29-4.44,6.16-5.71,1.88-1.27,4.39-1.9,7.54-1.9s5.55.81,7.23,2.43c1.68,1.62,2.53,3.57,2.59,5.85.05,2.29-.94,4.59-2.97,6.93l-23.28,26.02v-8.68l25.87,29.83c1.92,2.34,2.76,4.67,2.51,7-.25,2.34-1.3,4.24-3.12,5.71-1.83,1.46-4.16,2.21-7,2.21-3.45,0-6.22-.67-8.29-1.98-2.08-1.32-4.19-3.35-6.32-6.09l-22.98-25.57h-.3v21.92c0,7.81-3.81,11.72-11.42,11.72Z"/>
    <path class="cls-1" d="M531.58,420.49c-3.93,7.21-8.26,14.19-12.82,21-50.9,75.67-137.3,125.44-235.33,125.44C126.88,566.93,0,440.05,0,283.5S126.88,0,283.42,0c73.02,0,139.63,27.65,189.88,73.1,8.1,7.29,15.79,14.99,22.92,23.16.96,4.01-.16,8.42-3.21,11.62-2.4,2.56-5.69,3.77-8.98,3.77-2.16,0-4.25-.56-6.17-1.6-6.33-7.13-13.07-13.95-20.2-20.36-46.25-41.6-107.41-66.93-174.25-66.93C139.63,22.76,22.68,139.71,22.68,283.5s116.94,260.66,260.74,260.66c89.69,0,169.05-45.61,216.02-114.78,4.49-6.65,8.66-13.47,12.5-20.52,3.93-2.72,9.38-3.13,13.79-.4,4.25,2.65,6.41,7.37,5.85,12.02Z"/>
  </g>
</svg>