<?xml version="1.0" encoding="UTF-8"?>
<svg id="Calque_2" data-name="Calque 2" xmlns="http://www.w3.org/2000/svg" xmlns:xlink="http://www.w3.org/1999/xlink" viewBox="0 0 2432.83 566.93">
  <defs>
    <style>
      .cls-1 {
        fill: url(#Dégradé_sans_nom_42);
      }

      .cls-1, .cls-2, .cls-3, .cls-4 {
        stroke-width: 0px;
      }

      .cls-2 {
        fill: #2ee6b2;
      }

      .cls-3 {
        fill: #2165f8;
      }

      .cls-4 {
        fill: #fff;
      }
    </style>
    <linearGradient id="Dégradé_sans_nom_42" data-name="Dégradé sans nom 42" x1="2369.19" y1="491.61" x2="2369.19" y2="508.53" gradientUnits="userSpaceOnUse">
      <stop offset="0" stop-color="#2ee6b2"/>
      <stop offset=".74" stop-color="#2487e5"/>
      <stop offset="1" stop-color="#2165f8"/>
    </linearGradient>
  </defs>
  <g id="Calque_2-2" data-name="Calque 2">
    <g>
      <g>
        <path class="cls-4" d="M172.03,538.35c-19.17,13.28-37.91,20.9-56.23,22.86-18.32,1.96-35.46-1.18-51.43-9.44-15.96-8.25-30.04-21.15-42.2-38.7-9.38-13.54-15.78-27.17-19.2-40.89-3.44-13.72-3.89-27.11-1.38-40.18,2.51-13.06,7.91-25.57,16.21-37.53,8.3-11.94,19.53-22.83,33.7-32.65,8.71-6.03,18.08-11.1,28.11-15.19,10.04-4.09,20.64-6.67,31.82-7.75,4.72-.41,8.73.45,12,2.6,3.28,2.15,5.77,5.07,7.5,8.76,1.73,3.69,2.44,7.49,2.16,11.38-.28,3.89-1.73,7.29-4.38,10.19-2.64,2.91-6.65,4.79-12.01,5.64-7.32.78-14.44,2.56-21.35,5.31-6.92,2.76-13.91,6.59-21,11.51-11.44,7.93-19.55,16.7-24.32,26.33-4.77,9.63-6.18,19.9-4.22,30.82,1.97,10.93,7.13,22.42,15.51,34.51,12.61,18.2,26.55,28.94,41.8,32.19,15.25,3.26,31.5-1.09,48.74-13.03,5.8-4.02,11.36-8.71,16.7-14.09,5.35-5.37,10.28-11.16,14.78-17.39l3.54,20.09-32.15-46.4-21.74,15.07c-4.83,3.35-9.37,4.72-13.62,4.08-4.26-.63-7.83-3.04-10.73-7.23-3.01-4.35-4.05-8.57-3.08-12.7.95-4.12,3.85-7.86,8.68-11.21l37.94-26.29c4.83-3.35,9.39-4.59,13.68-3.76,4.28.84,8.09,3.69,11.44,8.52l38.85,56.06c2.9,4.19,4.55,8.29,4.95,12.3.39,4.02-.88,8.01-3.86,11.97-5.46,7.61-12.14,15.33-20.05,23.21-7.91,7.86-16.29,14.87-25.15,21Z"/>
        <path class="cls-4" d="M259.66,566.34c-7.45,0-13.14-1.97-17.05-5.89-3.92-3.91-5.89-9.5-5.89-16.75v-104.37c0-7.25,1.91-12.8,5.74-16.61,3.81-3.83,9.16-5.73,16.02-5.73s12.44,1.9,16.16,5.73c3.73,3.81,5.59,9.37,5.59,16.61v15.28h-2.94c2.35-11.76,7.55-20.88,15.59-27.34,8.03-6.47,18.42-10.09,31.16-10.88,4.89-.38,8.68.85,11.32,3.68,2.65,2.84,4.06,7.51,4.27,13.97.38,6.07-.83,10.87-3.68,14.4-2.84,3.53-7.6,5.69-14.26,6.48l-6.75.59c-11.18.97-19.45,4.21-24.85,9.69-5.39,5.5-8.08,13.43-8.08,23.82v54.69c0,7.25-1.91,12.84-5.73,16.75-3.83,3.92-9.37,5.89-16.61,5.89Z"/>
        <path class="cls-4" d="M424.58,566.93c-15.48,0-28.96-3.05-40.41-9.12-11.47-6.07-20.34-14.79-26.6-26.17-6.28-11.36-9.42-24.79-9.42-40.28,0-11.57,1.76-21.94,5.29-31.16,3.54-9.21,8.68-17.1,15.44-23.67,6.77-6.58,14.85-11.57,24.25-15,9.42-3.43,19.89-5.15,31.46-5.15,15.49,0,28.97,3.05,40.43,9.12,11.47,6.08,20.38,14.7,26.76,25.87,6.37,11.18,9.56,24.51,9.56,39.99,0,11.76-1.82,22.24-5.44,31.46s-8.78,17.16-15.44,23.82c-6.66,6.66-14.75,11.72-24.25,15.13-9.5,3.43-20.04,5.15-31.61,5.15ZM424.58,533.71c6.48,0,12.06-1.57,16.76-4.7,4.7-3.14,8.42-7.79,11.17-13.97,2.75-6.17,4.12-14.05,4.12-23.67,0-14.3-2.94-24.84-8.82-31.61-5.88-6.75-13.62-10.14-23.23-10.14-6.28,0-11.8,1.48-16.61,4.42-4.8,2.94-8.52,7.49-11.17,13.67-2.64,6.18-3.96,14.07-3.96,23.67,0,14.31,2.94,24.94,8.82,31.9,5.88,6.96,13.52,10.45,22.93,10.45Z"/>
        <path class="cls-4" d="M569.15,566.93c-15.49,0-28.96-3.05-40.43-9.12-11.47-6.07-20.33-14.79-26.6-26.17-6.28-11.36-9.41-24.79-9.41-40.28,0-11.57,1.76-21.94,5.29-31.16,3.53-9.21,8.67-17.1,15.44-23.67,6.77-6.58,14.85-11.57,24.25-15,9.41-3.43,19.89-5.15,31.46-5.15,15.48,0,28.96,3.05,40.43,9.12,11.46,6.08,20.38,14.7,26.76,25.87,6.36,11.18,9.54,24.51,9.54,39.99,0,11.76-1.8,22.24-5.43,31.46-3.64,9.21-8.78,17.16-15.44,23.82-6.67,6.66-14.75,11.72-24.25,15.13-9.52,3.43-20.04,5.15-31.61,5.15ZM569.15,533.71c6.47,0,12.06-1.57,16.76-4.7,4.7-3.14,8.42-7.79,11.17-13.97,2.73-6.17,4.12-14.05,4.12-23.67,0-14.3-2.94-24.84-8.82-31.61-5.88-6.75-13.63-10.14-23.23-10.14-6.28,0-11.81,1.48-16.61,4.42-4.81,2.94-8.53,7.49-11.17,13.67-2.65,6.18-3.98,14.07-3.98,23.67,0,14.31,2.95,24.94,8.83,31.9,5.88,6.96,13.52,10.45,22.93,10.45Z"/>
        <path class="cls-4" d="M730.55,566.34c-5.69,0-10.69-1.53-15-4.57-4.31-3.04-7.74-7.59-10.29-13.67l-44.39-102.3c-2.16-5.1-2.94-9.84-2.35-14.26.59-4.42,2.69-7.94,6.33-10.58,3.62-2.65,8.67-3.96,15.13-3.96,5.29,0,9.6,1.22,12.93,3.66,3.34,2.46,6.28,7.11,8.82,13.97l34.7,88.2h-9.41l36.16-88.5c2.73-6.66,5.77-11.21,9.11-13.67,3.34-2.45,7.94-3.66,13.82-3.66,5.1,0,9.16,1.31,12.2,3.96,3.05,2.64,4.91,6.12,5.59,10.43.68,4.32-.15,9.02-2.5,14.11l-45.27,102.61c-2.56,6.28-5.93,10.88-10.14,13.82-4.22,2.94-9.37,4.42-15.44,4.42Z"/>
        <path class="cls-4" d="M897.84,566.93c-17.06,0-31.72-3.09-43.95-9.27-12.25-6.17-21.67-14.89-28.23-26.17-6.56-11.27-9.84-24.54-9.84-39.83s3.13-27.99,9.41-39.25c6.28-11.27,15.04-20.1,26.32-26.47,11.27-6.36,24.05-9.56,38.36-9.56,10.39,0,19.8,1.72,28.22,5.15,8.44,3.43,15.68,8.33,21.77,14.7,6.07,6.37,10.68,14.11,13.81,23.23,3.13,9.11,4.7,19.25,4.7,30.42,0,3.73-1.18,6.52-3.53,8.38-2.35,1.87-5.78,2.8-10.28,2.8h-92.32v-22.94h74.09l-4.7,4.12c0-8.03-1.18-14.74-3.53-20.14-2.35-5.39-5.73-9.45-10.14-12.2-4.4-2.75-9.84-4.12-16.31-4.12-7.26,0-13.43,1.67-18.52,4.99-5.1,3.34-9.01,8.15-11.76,14.41-2.75,6.28-4.12,13.82-4.12,22.64v2.35c0,14.9,3.47,25.87,10.43,32.92,6.96,7.07,17.29,10.6,31.02,10.6,4.7,0,10.09-.59,16.17-1.76,6.07-1.18,11.76-3.05,17.05-5.59,4.51-2.16,8.53-2.88,12.06-2.2,3.53.68,6.26,2.3,8.23,4.85,1.96,2.54,3.09,5.48,3.38,8.82.3,3.34-.44,6.6-2.2,9.84-1.76,3.24-4.7,5.93-8.82,8.08-6.67,3.73-14.16,6.52-22.49,8.38-8.34,1.86-16.42,2.8-24.25,2.8Z"/>
      </g>
      <g>
        <path class="cls-4" d="M595.64,202.96c-14.7,0-27.5-2.9-38.38-8.66-10.89-5.76-19.32-14.05-25.26-24.85-5.96-10.79-8.94-23.54-8.94-38.25,0-10.98,1.67-20.84,5.02-29.59,3.36-8.75,8.24-16.24,14.66-22.47,6.43-6.24,14.1-10.98,23.03-14.24,8.94-3.26,18.89-4.89,29.87-4.89,14.71,0,27.51,2.9,38.39,8.66,10.89,5.78,19.36,13.96,25.41,24.56,6.05,10.62,9.07,23.28,9.07,37.97,0,11.16-1.73,21.12-5.17,29.87s-8.33,16.29-14.66,22.61c-6.32,6.32-14.01,11.13-23.03,14.37-9.02,3.26-19.03,4.89-30.01,4.89ZM595.64,171.42c6.15,0,11.45-1.49,15.92-4.47,4.47-2.99,8-7.4,10.61-13.27,2.61-5.85,3.91-13.35,3.91-22.47,0-13.58-2.79-23.59-8.37-30.01-5.58-6.41-12.93-9.63-22.06-9.63-5.96,0-11.2,1.4-15.77,4.19-4.56,2.79-8.09,7.11-10.61,12.98-2.51,5.87-3.76,13.36-3.76,22.47,0,13.59,2.79,23.68,8.37,30.29,5.58,6.61,12.84,9.92,21.77,9.92Z"/>
        <path class="cls-4" d="M729.53,202.96c-14.7,0-27.5-2.9-38.38-8.66-10.89-5.76-19.32-14.05-25.26-24.85-5.96-10.79-8.94-23.54-8.94-38.25,0-10.98,1.67-20.84,5.02-29.59,3.36-8.75,8.24-16.24,14.66-22.47,6.43-6.24,14.1-10.98,23.03-14.24,8.94-3.26,18.89-4.89,29.87-4.89,14.71,0,27.51,2.9,38.39,8.66,10.89,5.78,19.36,13.96,25.41,24.56,6.05,10.62,9.07,23.28,9.07,37.97,0,11.16-1.73,21.12-5.17,29.87s-8.33,16.29-14.66,22.61c-6.32,6.32-14.01,11.13-23.03,14.37-9.02,3.26-19.03,4.89-30.01,4.89ZM729.53,171.42c6.15,0,11.45-1.49,15.92-4.47,4.47-2.99,8-7.4,10.61-13.27,2.61-5.85,3.91-13.35,3.91-22.47,0-13.58-2.79-23.59-8.37-30.01-5.58-6.41-12.93-9.63-22.06-9.63-5.96,0-11.2,1.4-15.77,4.19-4.56,2.79-8.09,7.11-10.61,12.98-2.51,5.87-3.76,13.36-3.76,22.47,0,13.59,2.79,23.68,8.37,30.29,5.58,6.61,12.84,9.92,21.77,9.92Z"/>
        <path class="cls-4" d="M849.29,202.4c-6.88,0-12.14-1.87-15.77-5.6-3.62-3.71-5.44-9.02-5.44-15.9V22.06c0-7.08,1.82-12.42,5.44-16.06,3.63-3.62,8.89-5.44,15.77-5.44s11.87,1.82,15.5,5.44c3.62,3.63,5.44,8.98,5.44,16.06v97.43h.56l40.48-44.94c4.09-4.65,7.87-8.14,11.31-10.48,3.44-2.32,8.05-3.48,13.83-3.48s10.18,1.48,13.25,4.47c3.08,2.97,4.65,6.56,4.75,10.74.09,4.19-1.73,8.43-5.45,12.71l-42.71,47.74v-15.92l47.46,54.72c3.53,4.28,5.06,8.57,4.61,12.84-.47,4.28-2.38,7.78-5.73,10.48-3.35,2.69-7.63,4.05-12.84,4.05-6.34,0-11.41-1.22-15.22-3.63-3.82-2.41-7.69-6.14-11.59-11.16l-42.15-46.9h-.56v40.21c0,14.33-6.98,21.5-20.94,21.5Z"/>
        <path class="cls-4" d="M500.73,144.33c0,17.55-6.12,31.11-18.08,40.94-12.1,9.7-28.85,14.62-49.98,14.62h-33.77v-32.04h27.92c11.03,0,19.28-2.26,24.46-6.65,5.18-4.39,7.84-10.77,7.84-19.41s-2.66-14.89-7.84-19.28c-5.18-4.25-12.63-6.51-24.46-6.38-13.96.13-22.47-7.44-22.47-16.22s5.98-15.42,22.2-16.09c9.44-.4,15.02-2.53,19.41-5.98,5.32-3.99,7.84-10.24,7.84-18.35s-2.53-14.09-7.84-18.21c-5.18-3.99-13.16-6.11-23.93-6.11h-41.34v155.4c.66,22.07,1.33,54.37,1.33,54.77,0,36.96-40.28,69.39-74.05,69.39-19.28,0-38.15-9.7-49.32-25.39-10.1-12.1-8.77-26.99-7.58-32.84,1.06-6.38,3.99-12.5,8.38-17.28,7.58-8.24,18.21-12.1,28.45-10.24,7.98,1.33,15.02,5.85,19.67,12.76,5.18,7.31,7.05,16.22,5.45,25.26-1.73,10.37-8.77,20.21-17.81,25.92,4.12,1.46,7.84,1.06,12.1,1.06,23.13,0,32.97-22.2,32.97-48.26,0-.13-.53-50.65-.8-67.4,0-2.66-.13-4.39-.13-5.05V25.75c0-7.31,1.99-12.89,5.85-16.75,3.99-3.99,9.57-5.85,16.75-5.85h67.66c13.83,0,25.79,1.99,35.63,6.12,9.84,4.12,17.41,9.97,22.47,17.55,5.18,7.71,7.71,16.75,7.71,27.38,0,11.7-3.32,21.67-9.97,29.91-5.18,6.11-11.7,10.77-19.67,13.96,9.84,2.79,17.68,7.44,23.66,14.09,7.58,8.24,11.3,19.01,11.3,32.17Z"/>
      </g>
      <path class="cls-4" d="M112.49,37.68c41.25,0,74.8,33.56,74.8,74.8s-33.56,74.8-74.8,74.8-74.8-33.56-74.8-74.8S71.24,37.68,112.49,37.68M112.49,0C50.36,0,0,50.36,0,112.49s50.36,112.49,112.49,112.49,112.49-50.36,112.49-112.49S174.61,0,112.49,0h0Z"/>
    </g>
    <g>
      <g>
        <path class="cls-3" d="M2373.67,532.11c-1.44,1-2.85,1.57-4.23,1.72-1.38.15-2.67-.09-3.87-.71-1.2-.62-2.26-1.59-3.17-2.91-.71-1.02-1.19-2.04-1.44-3.08-.26-1.03-.29-2.04-.1-3.02s.6-1.92,1.22-2.82c.62-.9,1.47-1.72,2.53-2.46.66-.45,1.36-.83,2.11-1.14s1.55-.5,2.39-.58c.36-.03.66.03.9.2.25.16.43.38.56.66s.18.56.16.86-.13.55-.33.77c-.2.22-.5.36-.9.42-.55.06-1.09.19-1.61.4-.52.21-1.05.5-1.58.87-.86.6-1.47,1.26-1.83,1.98s-.47,1.5-.32,2.32c.15.82.54,1.69,1.17,2.6.95,1.37,2,2.18,3.14,2.42s2.37-.08,3.67-.98c.44-.3.85-.65,1.26-1.06.4-.4.77-.84,1.11-1.31l.27,1.51-2.42-3.49-1.64,1.13c-.36.25-.71.35-1.02.31-.32-.05-.59-.23-.81-.54s-.3-.64-.23-.96c.07-.31.29-.59.65-.84l2.85-1.98c.36-.25.71-.35,1.03-.28.32.06.61.28.86.64l2.92,4.22c.22.32.34.62.37.93.03.3-.07.6-.29.9-.41.57-.91,1.15-1.51,1.75-.6.59-1.23,1.12-1.89,1.58Z"/>
        <path class="cls-3" d="M2380.27,534.21c-.56,0-.99-.15-1.28-.44-.3-.29-.44-.71-.44-1.26v-7.85c0-.55.14-.96.43-1.25.29-.29.69-.43,1.21-.43s.94.14,1.22.43c.28.29.42.7.42,1.25v1.15h-.22c.18-.88.57-1.57,1.17-2.06.6-.49,1.39-.76,2.34-.82.37-.03.65.06.85.28.2.21.31.56.32,1.05.03.46-.06.82-.28,1.08s-.57.43-1.07.49l-.51.04c-.84.07-1.46.32-1.87.73-.41.41-.61,1.01-.61,1.79v4.11c0,.55-.14.97-.43,1.26-.29.3-.7.44-1.25.44Z"/>
        <path class="cls-3" d="M2392.67,534.26c-1.16,0-2.18-.23-3.04-.69-.86-.46-1.53-1.11-2-1.97-.47-.85-.71-1.86-.71-3.03,0-.87.13-1.65.4-2.34.27-.69.65-1.29,1.16-1.78.51-.49,1.12-.87,1.82-1.13.71-.26,1.5-.39,2.37-.39,1.17,0,2.18.23,3.04.69.86.46,1.53,1.11,2.01,1.95.48.84.72,1.84.72,3.01,0,.88-.14,1.67-.41,2.37s-.66,1.29-1.16,1.79-1.11.88-1.82,1.14c-.71.26-1.51.39-2.38.39ZM2392.67,531.76c.49,0,.91-.12,1.26-.35.35-.24.63-.59.84-1.05.21-.46.31-1.06.31-1.78,0-1.08-.22-1.87-.66-2.38-.44-.51-1.02-.76-1.75-.76-.47,0-.89.11-1.25.33-.36.22-.64.56-.84,1.03-.2.46-.3,1.06-.3,1.78,0,1.08.22,1.88.66,2.4s1.02.79,1.72.79Z"/>
        <path class="cls-3" d="M2403.55,534.26c-1.17,0-2.18-.23-3.04-.69s-1.53-1.11-2-1.97c-.47-.85-.71-1.86-.71-3.03,0-.87.13-1.65.4-2.34s.65-1.29,1.16-1.78c.51-.49,1.12-.87,1.82-1.13s1.5-.39,2.37-.39c1.16,0,2.18.23,3.04.69.86.46,1.53,1.11,2.01,1.95.48.84.72,1.84.72,3.01,0,.88-.14,1.67-.41,2.37-.27.69-.66,1.29-1.16,1.79-.5.5-1.11.88-1.82,1.14-.72.26-1.51.39-2.38.39ZM2403.55,531.76c.49,0,.91-.12,1.26-.35.35-.24.63-.59.84-1.05.21-.46.31-1.06.31-1.78,0-1.08-.22-1.87-.66-2.38-.44-.51-1.03-.76-1.75-.76-.47,0-.89.11-1.25.33-.36.22-.64.56-.84,1.03-.2.46-.3,1.06-.3,1.78,0,1.08.22,1.88.66,2.4s1.02.79,1.72.79Z"/>
        <path class="cls-3" d="M2415.69,534.21c-.43,0-.8-.12-1.13-.34s-.58-.57-.77-1.03l-3.34-7.7c-.16-.38-.22-.74-.18-1.07s.2-.6.48-.8c.27-.2.65-.3,1.14-.3.4,0,.72.09.97.28.25.19.47.53.66,1.05l2.61,6.63h-.71l2.72-6.66c.21-.5.43-.84.68-1.03.25-.18.6-.28,1.04-.28.38,0,.69.1.92.3.23.2.37.46.42.78.05.32-.01.68-.19,1.06l-3.41,7.72c-.19.47-.45.82-.76,1.04-.32.22-.7.33-1.16.33Z"/>
        <path class="cls-3" d="M2428.27,534.26c-1.28,0-2.39-.23-3.31-.7-.92-.46-1.63-1.12-2.12-1.97-.49-.85-.74-1.85-.74-3s.24-2.11.71-2.95,1.13-1.51,1.98-1.99c.85-.48,1.81-.72,2.89-.72.78,0,1.49.13,2.12.39.63.26,1.18.63,1.64,1.11.46.48.8,1.06,1.04,1.75.24.68.35,1.45.35,2.29,0,.28-.09.49-.27.63-.18.14-.44.21-.77.21h-6.94v-1.73h5.57l-.35.31c0-.6-.09-1.11-.27-1.51-.18-.41-.43-.71-.76-.92-.33-.21-.74-.31-1.23-.31-.55,0-1.01.13-1.39.38-.38.25-.68.61-.88,1.08-.21.47-.31,1.04-.31,1.7v.18c0,1.12.26,1.95.78,2.48.52.53,1.3.8,2.33.8.35,0,.76-.04,1.22-.13.46-.09.88-.23,1.28-.42.34-.16.64-.22.91-.17s.47.17.62.37c.15.19.23.41.25.66.02.25-.03.5-.17.74s-.35.45-.66.61c-.5.28-1.07.49-1.69.63-.63.14-1.24.21-1.82.21Z"/>
      </g>
      <g>
        <path class="cls-2" d="M2405.54,506.88c-1.11,0-2.07-.22-2.89-.65-.82-.43-1.45-1.06-1.9-1.87-.45-.81-.67-1.77-.67-2.88,0-.83.13-1.57.38-2.23.25-.66.62-1.22,1.1-1.69.48-.47,1.06-.83,1.73-1.07.67-.25,1.42-.37,2.25-.37,1.11,0,2.07.22,2.89.65.82.43,1.46,1.05,1.91,1.85.46.8.68,1.75.68,2.86,0,.84-.13,1.59-.39,2.25s-.63,1.23-1.1,1.7-1.05.84-1.73,1.08c-.68.25-1.43.37-2.26.37ZM2405.54,504.51c.46,0,.86-.11,1.2-.34.34-.22.6-.56.8-1,.2-.44.29-1,.29-1.69,0-1.02-.21-1.77-.63-2.26-.42-.48-.97-.72-1.66-.72-.45,0-.84.11-1.19.32-.34.21-.61.54-.8.98-.19.44-.28,1-.28,1.69,0,1.02.21,1.78.63,2.28s.97.75,1.64.75Z"/>
        <path class="cls-2" d="M2415.61,506.88c-1.11,0-2.07-.22-2.89-.65-.82-.43-1.45-1.06-1.9-1.87-.45-.81-.67-1.77-.67-2.88,0-.83.13-1.57.38-2.23.25-.66.62-1.22,1.1-1.69.48-.47,1.06-.83,1.73-1.07.67-.25,1.42-.37,2.25-.37,1.11,0,2.07.22,2.89.65.82.43,1.46,1.05,1.91,1.85.46.8.68,1.75.68,2.86,0,.84-.13,1.59-.39,2.25s-.63,1.23-1.1,1.7-1.05.84-1.73,1.08c-.68.25-1.43.37-2.26.37ZM2415.61,504.51c.46,0,.86-.11,1.2-.34.34-.22.6-.56.8-1,.2-.44.29-1,.29-1.69,0-1.02-.21-1.77-.63-2.26-.42-.48-.97-.72-1.66-.72-.45,0-.84.11-1.19.32-.34.21-.61.54-.8.98-.19.44-.28,1-.28,1.69,0,1.02.21,1.78.63,2.28s.97.75,1.64.75Z"/>
        <path class="cls-2" d="M2424.62,506.84c-.52,0-.91-.14-1.19-.42-.27-.28-.41-.68-.41-1.2v-11.95c0-.53.14-.93.41-1.21.27-.27.67-.41,1.19-.41s.89.14,1.17.41c.27.27.41.68.41,1.21v7.33h.04l3.04-3.38c.31-.35.59-.61.85-.79.26-.17.61-.26,1.04-.26s.77.11,1,.34c.23.22.35.49.36.81,0,.32-.13.63-.41.96l-3.21,3.59v-1.2l3.57,4.12c.27.32.38.64.35.97-.04.32-.18.58-.43.79-.25.2-.57.3-.97.3-.48,0-.86-.09-1.14-.27-.29-.18-.58-.46-.87-.84l-3.17-3.53h-.04v3.02c0,1.08-.53,1.62-1.58,1.62Z"/>
        <path class="cls-2" d="M2393.05,491.85h-5.09c-.54,0-.96.14-1.26.44s-.44.71-.44,1.26v11.1c0,.05.01.18.01.38.02,1.26.06,5.06.06,5.07,0,1.96-.74,3.63-2.48,3.63-.11,0-.22,0-.33,0-.19,0-.38-.01-.58-.08.68-.43,1.21-1.17,1.34-1.95.12-.68-.02-1.35-.41-1.9-.35-.52-.88-.86-1.48-.96-.13-.02-.26-.03-.38-.03-.64,0-1.28.29-1.76.8-.33.36-.55.82-.63,1.3-.09.44-.19,1.56.57,2.47.84,1.18,2.26,1.91,3.71,1.91,2.54,0,5.57-2.44,5.57-5.22,0-.03-.05-2.46-.1-4.12v-11.69h3.11c.81,0,1.41.16,1.8.46.4.31.59.77.59,1.37s-.19,1.08-.59,1.38c-.33.26-.75.42-1.46.45-1.22.05-1.67.55-1.67,1.21s.63,1.22,1.66,1.22c0,0,.02,0,.03,0,.02,0,.05,0,.07,0,.85,0,1.39.17,1.77.48.39.33.59.81.59,1.45s-.2,1.13-.59,1.46c-.39.33-1.01.5-1.84.5h-2.1v2.41h2.54c1.59,0,2.85-.37,3.76-1.1.9-.74,1.36-1.76,1.36-3.08,0-.99-.28-1.8-.85-2.42-.45-.5-1.04-.85-1.78-1.06.6-.24,1.09-.59,1.48-1.05.5-.62.75-1.37.75-2.25,0-.8-.19-1.48-.58-2.06-.38-.57-.95-1.01-1.69-1.32-.74-.31-1.64-.46-2.68-.46h0Z"/>
      </g>
      <path class="cls-1" d="M2369.19,494.45c3.1,0,5.63,2.52,5.63,5.63s-2.52,5.63-5.63,5.63-5.63-2.52-5.63-5.63,2.52-5.63,5.63-5.63M2369.19,491.61c-4.67,0-8.46,3.79-8.46,8.46s3.79,8.46,8.46,8.46,8.46-3.79,8.46-8.46-3.79-8.46-8.46-8.46h0Z"/>
    </g>
  </g>
</svg>