<?xml version="1.0" encoding="UTF-8"?>
<svg id="Calque_2" data-name="Calque 2" xmlns="http://www.w3.org/2000/svg" xmlns:xlink="http://www.w3.org/1999/xlink" viewBox="0 0 958.94 568.56">
  <defs>
    <style>
      .cls-1 {
        fill: url(#Dégradé_sans_nom_42);
      }

      .cls-1, .cls-2, .cls-3 {
        stroke-width: 0px;
      }

      .cls-2 {
        fill: #2ee6b2;
      }

      .cls-3 {
        fill: #2165f8;
      }
    </style>
    <linearGradient id="Dégradé_sans_nom_42" data-name="Dégradé sans nom 42" x1="112.68" y1="-.09" x2="112.68" y2="224.88" gradientTransform="translate(.74 -.14) rotate(.12)" gradientUnits="userSpaceOnUse">
      <stop offset="0" stop-color="#2ee6b2"/>
      <stop offset=".74" stop-color="#2487e5"/>
      <stop offset="1" stop-color="#2165f8"/>
    </linearGradient>
  </defs>
  <g id="Calque_2-2" data-name="Calque 2">
    <g>
      <g>
        <path class="cls-3" d="M171.85,538.48c-19.2,13.24-37.96,20.82-56.28,22.74-18.32,1.93-35.46-1.25-51.41-9.54-15.95-8.28-30-21.21-42.12-38.79-9.35-13.56-15.73-27.2-19.11-40.93-3.41-13.73-3.83-27.12-1.29-40.18,2.53-13.06,7.96-25.56,16.29-37.5,8.32-11.92,19.57-22.79,33.76-32.58,8.72-6.02,18.1-11.06,28.14-15.13,10.05-4.07,20.66-6.63,31.84-7.68,4.72-.4,8.73.47,11.99,2.62,3.28,2.16,5.76,5.08,7.48,8.77,1.72,3.7,2.43,7.49,2.14,11.38-.29,3.89-1.75,7.29-4.4,10.18-2.65,2.91-6.66,4.77-12.02,5.62-7.33.77-14.45,2.53-21.36,5.27-6.92,2.75-13.92,6.57-21.02,11.46-11.46,7.9-19.58,16.66-24.37,26.28-4.79,9.62-6.23,19.89-4.29,30.81,1.94,10.93,7.09,22.43,15.44,34.54,12.58,18.23,26.49,28.99,41.73,32.28,15.24,3.29,31.5-1.02,48.76-12.93,5.81-4.01,11.38-8.68,16.73-14.05,5.36-5.36,10.3-11.14,14.81-17.36l3.5,20.09-32.05-46.47-21.78,15.02c-4.84,3.34-9.38,4.7-13.63,4.05-4.26-.63-7.82-3.06-10.72-7.26-3-4.36-4.03-8.58-3.05-12.71.96-4.12,3.87-7.85,8.71-11.19l37.99-26.21c4.84-3.34,9.4-4.57,13.69-3.73,4.28.85,8.09,3.71,11.43,8.54l38.73,56.14c2.9,4.2,4.53,8.3,4.92,12.31.38,4.02-.9,8.01-3.89,11.97-5.47,7.6-12.18,15.31-20.1,23.16-7.93,7.84-16.33,14.83-25.19,20.95Z"/>
        <path class="cls-3" d="M259.41,566.65c-7.45-.02-13.13-2-17.04-5.93-3.92-3.92-5.87-9.51-5.86-16.76l.22-104.37c.02-7.25,1.94-12.79,5.78-16.6,3.82-3.82,9.17-5.71,16.03-5.7s12.44,1.93,16.15,5.76c3.72,3.82,5.57,9.38,5.56,16.62l-.03,15.28h-2.94c2.38-11.76,7.59-20.87,15.64-27.32,8.04-6.45,18.44-10.05,31.18-10.82,4.9-.37,8.68.87,11.31,3.7,2.65,2.85,4.04,7.51,4.24,13.98.37,6.07-.86,10.87-3.71,14.39-2.85,3.52-7.61,5.67-14.27,6.45l-6.75.57c-11.19.95-19.46,4.17-24.88,9.64-5.4,5.48-8.11,13.41-8.13,23.8l-.11,54.69c-.02,7.25-1.94,12.83-5.76,16.74-3.84,3.92-9.38,5.87-16.62,5.86Z"/>
        <path class="cls-3" d="M424.33,567.58c-15.48-.03-28.95-3.11-40.39-9.2-11.46-6.09-20.31-14.83-26.55-26.22-6.25-11.37-9.37-24.81-9.34-40.3.02-11.57,1.81-21.94,5.36-31.15,3.56-9.21,8.72-17.09,15.48-23.63,6.78-6.56,14.87-11.54,24.28-14.95,9.43-3.41,19.9-5.11,31.47-5.09,15.49.03,28.96,3.11,40.41,9.2,11.46,6.11,20.35,14.74,26.7,25.92,6.35,11.2,9.51,24.53,9.47,40.01-.02,11.76-1.86,22.24-5.51,31.45-3.64,9.21-8.81,17.14-15.48,23.78-6.67,6.64-14.78,11.69-24.28,15.08-9.51,3.41-20.05,5.11-31.62,5.09ZM424.4,534.36c6.48.01,12.06-1.55,16.77-4.67,4.71-3.13,8.44-7.78,11.2-13.95,2.76-6.16,4.14-14.05,4.16-23.66.03-14.3-2.89-24.85-8.75-31.63-5.86-6.77-13.6-10.17-23.21-10.19-6.28-.01-11.8,1.45-16.62,4.38-4.8,2.93-8.53,7.47-11.2,13.65-2.65,6.17-3.99,14.06-4.01,23.66-.03,14.31,2.89,24.94,8.75,31.91,5.86,6.97,13.5,10.47,22.91,10.49Z"/>
        <path class="cls-3" d="M568.9,567.88c-15.49-.03-28.95-3.11-40.41-9.2-11.46-6.09-20.3-14.83-26.55-26.22-6.25-11.37-9.35-24.81-9.32-40.3.02-11.57,1.81-21.94,5.36-31.15,3.55-9.21,8.7-17.09,15.48-23.63,6.78-6.56,14.87-11.54,24.28-14.95,9.41-3.41,19.9-5.11,31.47-5.09,15.48.03,28.95,3.11,40.41,9.2,11.44,6.11,20.35,14.74,26.7,25.92,6.33,11.2,9.49,24.53,9.46,40.01-.02,11.76-1.85,22.24-5.49,31.45-3.66,9.21-8.81,17.14-15.48,23.78-6.69,6.64-14.78,11.69-24.28,15.08-9.52,3.41-20.05,5.11-31.62,5.09ZM568.97,534.66c6.47.01,12.06-1.55,16.77-4.67,4.71-3.13,8.44-7.78,11.2-13.95,2.75-6.16,4.14-14.05,4.16-23.66.03-14.3-2.89-24.85-8.75-31.63-5.86-6.77-13.61-10.17-23.21-10.19-6.28-.01-11.82,1.45-16.62,4.38-4.82,2.93-8.55,7.47-11.2,13.65-2.67,6.17-4.01,14.06-4.03,23.66-.03,14.31,2.9,24.94,8.77,31.91,5.86,6.97,13.5,10.47,22.91,10.49Z"/>
        <path class="cls-3" d="M730.31,567.63c-5.69-.01-10.69-1.55-14.99-4.6-4.3-3.04-7.72-7.6-10.27-13.69l-44.18-102.4c-2.15-5.1-2.92-9.85-2.32-14.26.6-4.41,2.71-7.94,6.35-10.57,3.63-2.64,8.68-3.95,15.14-3.93,5.29.01,9.59,1.24,12.93,3.69,3.33,2.47,6.26,7.12,8.79,13.99l34.51,88.27-9.41-.02,36.35-88.42c2.75-6.65,5.79-11.2,9.13-13.65,3.34-2.44,7.95-3.65,13.83-3.64,5.1.01,9.16,1.33,12.19,3.99,3.04,2.64,4.9,6.14,5.57,10.44.67,4.32-.17,9.02-2.53,14.1l-45.48,102.51c-2.57,6.27-5.96,10.87-10.17,13.8-4.23,2.93-9.37,4.4-15.44,4.38Z"/>
        <path class="cls-3" d="M897.59,568.56c-17.06-.04-31.71-3.16-43.93-9.36-12.24-6.19-21.64-14.93-28.18-26.23-6.54-11.28-9.79-24.56-9.76-39.85s3.19-27.98,9.49-39.23c6.3-11.25,15.08-20.07,26.37-26.41,11.28-6.33,24.07-9.51,38.38-9.48,10.39.02,19.79,1.76,28.21,5.21,8.43,3.45,15.66,8.36,21.73,14.74,6.06,6.38,10.65,14.13,13.76,23.26,3.11,9.11,4.66,19.26,4.64,30.43,0,3.73-1.19,6.52-3.54,8.37-2.36,1.87-5.79,2.79-10.29,2.78l-92.32-.19.05-22.94,74.09.15-4.71,4.11c.02-8.03-1.15-14.74-3.49-20.15-2.34-5.39-5.71-9.46-10.12-12.22-4.4-2.76-9.83-4.14-16.3-4.15-7.26-.02-13.43,1.64-18.54,4.95-5.11,3.33-9.03,8.13-11.79,14.39-2.76,6.27-4.14,13.81-4.16,22.63v2.35c-.04,14.9,3.41,25.87,10.36,32.94,6.94,7.08,17.27,10.63,31,10.66,4.7,0,10.09-.57,16.18-1.73,6.07-1.16,11.76-3.02,17.06-5.56,4.52-2.15,8.54-2.87,12.06-2.18,3.53.69,6.26,2.31,8.22,4.87,1.95,2.55,3.08,5.49,3.36,8.83.29,3.34-.45,6.6-2.22,9.84-1.77,3.24-4.72,5.92-8.83,8.06-6.68,3.72-14.18,6.49-22.51,8.33-8.34,1.84-16.43,2.77-24.26,2.75Z"/>
      </g>
      <g>
        <path class="cls-2" d="M596.16,203.97c-14.7-.03-27.49-2.95-38.36-8.74-10.88-5.79-19.29-14.09-25.21-24.9-5.94-10.8-8.9-23.56-8.87-38.26.02-10.98,1.72-20.83,5.09-29.58,3.38-8.74,8.28-16.22,14.7-22.44,6.44-6.23,14.12-10.95,23.06-14.19,8.95-3.24,18.9-4.85,29.88-4.83,14.71.03,27.5,2.95,38.37,8.74,10.88,5.8,19.33,14,25.35,24.61,6.03,10.63,9.03,23.3,9,37.99-.02,11.16-1.77,21.12-5.23,29.86-3.46,8.74-8.37,16.28-14.7,22.58-6.34,6.31-14.03,11.1-23.06,14.32-9.03,3.24-19.04,4.85-30.02,4.83ZM596.22,172.42c6.15.01,11.45-1.47,15.93-4.43,4.47-2.98,8.01-7.38,10.63-13.25,2.62-5.85,3.94-13.34,3.95-22.46.03-13.58-2.74-23.59-8.31-30.03-5.57-6.42-12.91-9.66-22.04-9.68-5.96-.01-11.21,1.38-15.78,4.16-4.56,2.78-8.1,7.1-10.63,12.96-2.52,5.86-3.79,13.35-3.81,22.46-.03,13.59,2.74,23.69,8.31,30.3,5.57,6.62,12.82,9.95,21.75,9.96Z"/>
        <path class="cls-2" d="M730.04,204.25c-14.7-.03-27.49-2.95-38.36-8.74-10.88-5.79-19.29-14.09-25.21-24.9-5.94-10.8-8.9-23.56-8.87-38.26.02-10.98,1.72-20.83,5.09-29.58,3.38-8.74,8.28-16.22,14.7-22.44,6.44-6.23,14.12-10.95,23.06-14.19,8.95-3.24,18.9-4.85,29.88-4.83,14.71.03,27.5,2.95,38.37,8.74,10.88,5.8,19.33,14,25.35,24.61,6.03,10.63,9.03,23.3,9,37.99-.02,11.16-1.77,21.12-5.23,29.86-3.46,8.74-8.37,16.28-14.7,22.58-6.34,6.31-14.03,11.1-23.06,14.32-9.03,3.24-19.04,4.85-30.02,4.83ZM730.11,172.7c6.15.01,11.45-1.47,15.93-4.43,4.47-2.98,8.01-7.38,10.63-13.25,2.62-5.85,3.94-13.34,3.95-22.46.03-13.58-2.74-23.59-8.31-30.03-5.57-6.42-12.91-9.66-22.04-9.68-5.96-.01-11.21,1.38-15.78,4.16-4.56,2.78-8.1,7.1-10.63,12.96-2.52,5.86-3.79,13.35-3.81,22.46-.03,13.59,2.74,23.69,8.31,30.3s12.82,9.95,21.75,9.96Z"/>
        <path class="cls-2" d="M849.8,203.94c-6.88-.01-12.13-1.89-15.76-5.63-3.61-3.72-5.42-9.03-5.41-15.91l.33-158.85c.01-7.08,1.84-12.42,5.47-16.05,3.64-3.61,8.9-5.42,15.78-5.41s11.86,1.84,15.49,5.47c3.61,3.64,5.42,8.99,5.41,16.07l-.2,97.43h.56s40.57-44.86,40.57-44.86c4.1-4.64,7.88-8.12,11.33-10.45,3.45-2.32,8.06-3.46,13.83-3.45s10.17,1.5,13.25,4.49c3.07,2.98,4.63,6.57,4.73,10.75.08,4.19-1.74,8.42-5.48,12.7l-42.81,47.65.03-15.92,47.35,54.82c3.52,4.29,5.05,8.58,4.58,12.85-.48,4.28-2.39,7.77-5.75,10.46-3.35,2.68-7.64,4.03-12.85,4.02-6.34-.01-11.41-1.24-15.21-3.67-3.81-2.42-7.67-6.16-11.57-11.19l-42.06-46.99h-.56s-.08,40.2-.08,40.2c-.03,14.33-7.03,21.48-20.98,21.45Z"/>
        <path class="cls-2" d="M501.36,145.14c-.04,17.55-6.18,31.09-18.17,40.91-12.12,9.68-28.88,14.56-50.01,14.52l-33.77-.07.07-32.04,27.92.06c11.03.02,19.28-2.22,24.47-6.6,5.19-4.38,7.87-10.75,7.88-19.39.02-8.51-2.63-14.89-7.8-19.29-5.18-4.26-12.62-6.54-24.45-6.43-13.96.1-22.45-7.49-22.43-16.26.02-8.77,6.01-15.41,22.23-16.04,9.44-.38,15.03-2.49,19.42-5.94,5.33-3.98,7.86-10.22,7.88-18.33.02-7.98-2.5-14.1-7.8-18.23-5.18-4-13.15-6.14-23.92-6.16l-41.34-.09-.32,155.4c.62,22.07,1.22,54.37,1.22,54.77-.08,36.96-40.42,69.31-74.19,69.24-19.28-.04-38.13-9.78-49.27-25.49-10.08-12.12-8.72-27-7.51-32.85,1.08-6.38,4.01-12.49,8.41-17.26,7.59-8.23,18.24-12.06,28.47-10.18,7.97,1.35,15.01,5.88,19.65,12.8,5.17,7.32,7.01,16.23,5.4,25.27-1.75,10.37-8.82,20.19-17.87,25.88,4.12,1.47,7.84,1.08,12.09,1.09,23.13.05,33.02-22.13,33.07-48.19,0-.13-.43-50.65-.66-67.4,0-2.66-.12-4.39-.12-5.05l.31-147.56c.02-7.31,2.02-12.89,5.88-16.74,4-3.98,9.58-5.83,16.76-5.81l67.66.14c13.83.03,25.79,2.05,35.61,6.19,9.83,4.14,17.39,10.01,22.43,17.59,5.17,7.72,7.68,16.77,7.65,27.4-.02,11.7-3.37,21.66-10.03,29.89-5.2,6.1-11.72,10.74-19.7,13.92,9.83,2.81,17.66,7.48,23.63,14.14,7.56,8.26,11.26,19.03,11.23,32.19Z"/>
      </g>
      <path class="cls-1" d="M113.34,37.68c41.25.09,74.73,33.71,74.65,74.96-.09,41.25-33.71,74.73-74.96,74.65-41.25-.09-74.73-33.71-74.65-74.96.09-41.25,33.71-74.73,74.96-74.65M113.42,0C51.3-.13.83,50.13.7,112.25c-.13,62.12,50.13,112.59,112.25,112.72,62.12.13,112.59-50.13,112.72-112.25C225.8,50.6,175.54.13,113.42,0h0Z"/>
    </g>
  </g>
</svg>