<?xml version="1.0" encoding="UTF-8"?>
<svg id="Calque_2" data-name="Calque 2" xmlns="http://www.w3.org/2000/svg" xmlns:xlink="http://www.w3.org/1999/xlink" viewBox="0 0 893.1 651.97">
  <defs>
    <style>
      .cls-1 {
        fill: url(#Dégradé_sans_nom_37);
      }

      .cls-1, .cls-2, .cls-3, .cls-4 {
        stroke-width: 0px;
      }

      .cls-2 {
        fill: url(#Dégradé_sans_nom_42);
      }

      .cls-3 {
        fill: url(#Dégradé_sans_nom_36);
      }

      .cls-4 {
        fill: #2165f8;
      }
    </style>
    <linearGradient id="Dégradé_sans_nom_36" data-name="Dégradé sans nom 36" x1="471.16" y1="61.96" x2="471.16" y2="224.99" gradientUnits="userSpaceOnUse">
      <stop offset="0" stop-color="#2ee6b2"/>
      <stop offset=".43" stop-color="#2de4b3"/>
      <stop offset=".58" stop-color="#2dddb6"/>
      <stop offset=".69" stop-color="#2bd1bd"/>
      <stop offset=".78" stop-color="#2ac0c6"/>
      <stop offset=".86" stop-color="#28aad2"/>
      <stop offset=".92" stop-color="#258fe0"/>
      <stop offset=".98" stop-color="#226ff2"/>
      <stop offset="1" stop-color="#2165f8"/>
    </linearGradient>
    <linearGradient id="Dégradé_sans_nom_37" data-name="Dégradé sans nom 37" x1="434.66" y1="190.15" x2="434.66" y2="405.71" gradientUnits="userSpaceOnUse">
      <stop offset="0" stop-color="#2ee6b2"/>
      <stop offset=".02" stop-color="#2cdbb7"/>
      <stop offset=".08" stop-color="#29bbc9"/>
      <stop offset=".14" stop-color="#26a0d7"/>
      <stop offset=".22" stop-color="#248ae3"/>
      <stop offset=".31" stop-color="#2379ec"/>
      <stop offset=".42" stop-color="#216df3"/>
      <stop offset=".57" stop-color="#2166f6"/>
      <stop offset="1" stop-color="#2165f8"/>
    </linearGradient>
    <linearGradient id="Dégradé_sans_nom_42" data-name="Dégradé sans nom 42" x1="446.55" y1="0" x2="446.55" y2="467.66" gradientUnits="userSpaceOnUse">
      <stop offset="0" stop-color="#2ee6b2"/>
      <stop offset=".74" stop-color="#2487e5"/>
      <stop offset="1" stop-color="#2165f8"/>
    </linearGradient>
  </defs>
  <g id="Calque_2-2" data-name="Calque 2">
    <g>
      <g>
        <path class="cls-3" d="M532.84,144.51c0,2.21-.18,4.43-.6,6.64-1.97,11.49-9.21,21.48-20.28,28.06-10.71,8.14-23.67,14.02-42.03,17.2-3.92.68-6.99,1-10.58,1.67-.87.16-1.68-.37-1.87-1.24-.72-3.27-2.28-9.96-2.87-12.72-.2-.93.37-1.77,1.3-1.92,13.45-2.13,24.71-6.53,36.37-11.07,5.92-2.33,11.07-6.52,13.16-10.71,5.26-10.59.78-21.18-2.33-25.3-4.13-5.5-8.73-8.91-19.2-9.27-4.13-.18-8.73.72-13.7,2.45-.96.36-4.07,2.21-6.16,3.41-1.14.72-2.21,1.32-2.99,1.74l-.54.6-.84.06c-3.11.84-7.84-.6-8.91-4.13-1.5-4.79.66-7.36,2.69-8.67.36-.18,4.97-2.27,8.2-4.01,3.05-1.56,5.14-3.29,7-5.8,7.78-10.65,6.34-21.3,1.44-27.1-4.55-5.38-13.4-7.3-23.63-5.03-4.52,1.05-16.61,6.76-22.29,11.6-1,.85-1.27,1.93-1.22,3.25.63,16.81,18.62,107.93,21.13,120.81.11.59-.08,1.15-.53,1.53-1.75,1.48-6.36,5.36-9.56,8.05-.98.82-2.46.29-2.71-.97-3.75-19.25-21.67-133.29-21.79-134.53-.1-.98.32-2.18.84-3.11.81-1.45,11.86-12.19,21.73-17.1,9.75-4.79,18.9-6.94,29.73-6.94,7.66,0,18.48,3.77,23.33,10.05,7.96,10.17,8.37,21.48,1.14,36.25,4.49-.48,9.87-.84,11.96-.84,9.51,0,19.26,4.67,25.48,12.14,5.98,7.12,9.15,15.91,9.15,24.94Z"/>
        <path class="cls-1" d="M449.91,264.65c-3.07,2.83-7.71,7.13-9.53,8.78-.42.38-.59.92-.51,1.48,1.48,10.61,1.58,9.22,2.7,19.48.1.92.9,1.61,1.82,1.52,3.25-.32,8.79-1.08,11.55-1.45.93-.12,1.55-.98,1.43-1.91-1.51-11.44-2-10.84-4.66-26.87-.22-1.32-1.81-1.94-2.79-1.03ZM462.14,351.51c-.1-2.62-.26-5.97-.53-10.37-.06-1.02-1-1.78-2-1.6-3.11.55-7.19,1.15-10.68,1.57-.87.1-1.52.94-1.47,1.81.18,3.57.28,6.37.33,8.71l.06.72c.06.84,0,4.07,0,4.13,0,19.2-13.82,34.82-30.81,34.82-3.17,0-6.34-.6-9.39-1.67,6.7-4.19,11.84-11.43,13.16-19.02,1.2-6.64-.24-13.28-4.01-18.66-3.47-5.03-8.61-8.37-14.48-9.39-7.6-1.32-15.43,1.5-20.94,7.6-3.23,3.53-5.38,7.96-6.22,12.68-.84,4.31-1.85,15.25,5.56,24.23,8.26,11.49,22.19,18.66,36.31,18.66,24.94,0,45.22-22.07,45.22-49.23,0-.42-.06-3.23-.12-4.97ZM508.98,258.05c-.18-3.05-1.68-5.98-4.61-9.15-.48-.54-.96-.9-6.28-4.37-7.42-4.97-21.36-14.18-30.99-21.95-2.87-2.39-7.12-2.33-9.93.12-1.67,1.44-4.19,3.41-6.64,5.38-.54.48-2.87,2.27-3.29,2.63-5.98,5.08-23.73,18.96-23.73,18.96-4.49,3.71-4.49,8.67-2.21,11.67,1.5,1.91,3.23,2.99,5.2,3.23,2.09.24,4.31-.6,6.52-2.39.18-.18,25.88-22.61,26.6-23.15,1.79-1.38,4.68-2.06,7.04-.53,3.19,2.07,20.6,14.24,24.66,17.63,1.79,1.49,2.61,4.11,2.55,6.75-.36,21.42-20.49,41.37-35.5,45.31-23.5,6.18-39.84-3.17-45.1-6.52-16.93-10.83-31.34-36.74-27.45-58.52,3.68-20.71,9.71-27.04,28.27-34.76.72-.33,1.15-1.07.99-1.85-.66-3.24-2.24-10.06-3.46-15.08-.23-.93-1.21-1.5-2.14-1.25-31.52,8.41-46.56,27.59-49.03,57.91-1.91,23.39,10.77,49.77,30.87,64.13,14.66,10.47,31.38,20.01,65.71,14.26,28.88-4.84,49.38-29.04,51.71-57.21.24-2.69.48-6.76.24-11.25Z"/>
      </g>
      <path class="cls-2" d="M446.55,18.74c118.6,0,215.09,96.49,215.09,215.09s-96.49,215.09-215.09,215.09-215.09-96.49-215.09-215.09S327.95,18.74,446.55,18.74M446.55,0c-129.14,0-233.83,104.69-233.83,233.83s104.69,233.83,233.83,233.83,233.83-104.69,233.83-233.83S575.69,0,446.55,0h0Z"/>
    </g>
    <g>
      <g>
        <path class="cls-4" d="M557.09,589.45c-8.19,5.68-16.2,8.93-24.03,9.77-7.83.84-15.15-.5-21.98-4.03-6.82-3.53-12.84-9.04-18.03-16.54-4.01-5.79-6.74-11.61-8.2-17.47-1.47-5.86-1.66-11.59-.59-17.17,1.07-5.58,3.38-10.93,6.93-16.04,3.54-5.1,8.34-9.75,14.4-13.95,3.72-2.58,7.72-4.74,12.01-6.49,4.29-1.75,8.82-2.85,13.6-3.31,2.02-.18,3.73.19,5.13,1.11,1.4.92,2.47,2.16,3.2,3.74s1.04,3.2.92,4.86c-.12,1.66-.74,3.11-1.87,4.35-1.13,1.24-2.84,2.05-5.13,2.41-3.13.33-6.17,1.09-9.12,2.27-2.96,1.18-5.94,2.82-8.97,4.92-4.89,3.39-8.35,7.14-10.39,11.25-2.04,4.11-2.64,8.5-1.81,13.17.84,4.67,3.05,9.58,6.63,14.75,5.39,7.78,11.35,12.36,17.86,13.76,6.52,1.39,13.46-.46,20.83-5.57,2.48-1.72,4.86-3.72,7.14-6.02,2.28-2.29,4.39-4.77,6.31-7.43l1.51,8.58-13.74-19.83-9.29,6.44c-2.06,1.43-4.01,2.01-5.82,1.74-1.82-.27-3.35-1.3-4.59-3.09-1.29-1.86-1.73-3.66-1.32-5.43.41-1.76,1.65-3.36,3.71-4.79l16.21-11.23c2.06-1.43,4.01-1.96,5.85-1.61,1.83.36,3.46,1.58,4.89,3.64l16.6,23.96c1.24,1.79,1.94,3.54,2.12,5.26.17,1.72-.38,3.42-1.65,5.12-2.33,3.25-5.19,6.55-8.57,9.92-3.38,3.36-6.96,6.35-10.75,8.97Z"/>
        <path class="cls-4" d="M594.53,601.41c-3.18,0-5.61-.84-7.28-2.52-1.68-1.67-2.52-4.06-2.52-7.16v-44.6c0-3.1.82-5.47,2.45-7.1,1.63-1.64,3.91-2.45,6.85-2.45s5.32.81,6.91,2.45c1.59,1.63,2.39,4,2.39,7.1v6.53h-1.26c1-5.02,3.22-8.92,6.66-11.68,3.43-2.76,7.87-4.31,13.31-4.65,2.09-.16,3.71.36,4.84,1.57,1.13,1.22,1.74,3.21,1.82,5.97.16,2.59-.36,4.64-1.57,6.15s-3.25,2.43-6.09,2.77l-2.89.25c-4.78.41-8.31,1.8-10.62,4.14-2.3,2.35-3.45,5.74-3.45,10.18v23.37c0,3.1-.82,5.49-2.45,7.16-1.64,1.68-4,2.52-7.1,2.52Z"/>
        <path class="cls-4" d="M665,601.66c-6.61,0-12.37-1.3-17.27-3.9-4.9-2.59-8.69-6.32-11.37-11.18-2.68-4.85-4.03-10.59-4.03-17.21,0-4.94.75-9.38,2.26-13.31,1.51-3.94,3.71-7.31,6.6-10.11,2.89-2.81,6.34-4.94,10.36-6.41,4.03-1.47,8.5-2.2,13.44-2.2,6.62,0,12.38,1.3,17.27,3.9,4.9,2.6,8.71,6.28,11.43,11.05,2.72,4.78,4.08,10.47,4.08,17.09,0,5.02-.78,9.5-2.33,13.44s-3.75,7.33-6.6,10.18-6.3,5.01-10.36,6.47c-4.06,1.47-8.56,2.2-13.51,2.2ZM665,587.47c2.77,0,5.15-.67,7.16-2.01,2.01-1.34,3.6-3.33,4.77-5.97,1.17-2.63,1.76-6.01,1.76-10.11,0-6.11-1.26-10.61-3.77-13.51-2.51-2.89-5.82-4.33-9.93-4.33-2.68,0-5.04.63-7.1,1.89-2.05,1.26-3.64,3.2-4.77,5.84-1.13,2.64-1.69,6.01-1.69,10.11,0,6.12,1.26,10.66,3.77,13.63s5.78,4.46,9.8,4.46Z"/>
        <path class="cls-4" d="M726.77,601.66c-6.62,0-12.37-1.3-17.27-3.9s-8.69-6.32-11.37-11.18c-2.68-4.85-4.02-10.59-4.02-17.21,0-4.94.75-9.38,2.26-13.31s3.7-7.31,6.6-10.11c2.89-2.81,6.34-4.94,10.36-6.41s8.5-2.2,13.44-2.2c6.61,0,12.37,1.3,17.27,3.9,4.9,2.6,8.71,6.28,11.43,11.05,2.72,4.78,4.08,10.47,4.08,17.09,0,5.02-.77,9.5-2.32,13.44-1.55,3.94-3.75,7.33-6.6,10.18-2.85,2.84-6.3,5.01-10.36,6.47-4.07,1.47-8.56,2.2-13.51,2.2ZM726.77,587.47c2.76,0,5.15-.67,7.16-2.01,2.01-1.34,3.6-3.33,4.77-5.97,1.17-2.63,1.76-6.01,1.76-10.11,0-6.11-1.26-10.61-3.77-13.51-2.51-2.89-5.82-4.33-9.93-4.33-2.68,0-5.05.63-7.1,1.89-2.06,1.26-3.65,3.2-4.77,5.84-1.13,2.64-1.7,6.01-1.7,10.11,0,6.12,1.26,10.66,3.77,13.63s5.78,4.46,9.8,4.46Z"/>
        <path class="cls-4" d="M795.74,601.41c-2.43,0-4.57-.65-6.41-1.95s-3.31-3.24-4.4-5.84l-18.97-43.71c-.92-2.18-1.26-4.21-1-6.09s1.15-3.39,2.7-4.52c1.55-1.13,3.7-1.69,6.47-1.69,2.26,0,4.1.52,5.53,1.57,1.43,1.05,2.68,3.04,3.77,5.97l14.83,37.69h-4.02l15.45-37.81c1.17-2.84,2.47-4.79,3.89-5.84,1.43-1.05,3.39-1.57,5.91-1.57,2.18,0,3.91.56,5.21,1.69,1.3,1.13,2.1,2.62,2.39,4.46.29,1.85-.06,3.86-1.07,6.03l-19.34,43.84c-1.09,2.68-2.54,4.65-4.33,5.91-1.81,1.26-4,1.89-6.6,1.89Z"/>
        <path class="cls-4" d="M867.22,601.66c-7.29,0-13.55-1.32-18.78-3.96-5.23-2.63-9.26-6.36-12.06-11.18-2.8-4.81-4.21-10.49-4.21-17.02s1.34-11.96,4.02-16.77,6.43-8.59,11.25-11.31c4.81-2.72,10.28-4.08,16.39-4.08,4.44,0,8.46.74,12.06,2.2,3.6,1.47,6.7,3.56,9.3,6.28,2.59,2.72,4.56,6.03,5.9,9.93,1.34,3.89,2.01,8.23,2.01,13,0,1.59-.5,2.79-1.51,3.58-1,.8-2.47,1.2-4.39,1.2h-39.45v-9.8h31.66l-2.01,1.76c0-3.43-.5-6.3-1.51-8.61-1-2.3-2.45-4.04-4.33-5.21-1.88-1.17-4.21-1.76-6.97-1.76-3.1,0-5.74.71-7.92,2.13-2.18,1.43-3.85,3.48-5.02,6.16-1.17,2.68-1.76,5.91-1.76,9.67v1c0,6.37,1.48,11.05,4.46,14.07,2.97,3.02,7.39,4.53,13.26,4.53,2.01,0,4.31-.25,6.91-.75,2.59-.5,5.02-1.3,7.28-2.39,1.93-.92,3.65-1.23,5.15-.94s2.68.98,3.52,2.07c.84,1.09,1.32,2.34,1.44,3.77.13,1.43-.19,2.82-.94,4.21s-2.01,2.54-3.77,3.45c-2.85,1.59-6.05,2.79-9.61,3.58-3.56.79-7.02,1.2-10.36,1.2Z"/>
      </g>
      <g>
        <path class="cls-4" d="M268.03,601.66c-6.61,0-12.37-1.3-17.27-3.9-4.9-2.59-8.69-6.32-11.37-11.18-2.68-4.85-4.03-10.59-4.03-17.21,0-4.94.75-9.38,2.26-13.31,1.51-3.94,3.71-7.31,6.6-10.11,2.89-2.81,6.34-4.94,10.36-6.41,4.03-1.47,8.5-2.2,13.44-2.2,6.62,0,12.38,1.3,17.27,3.9,4.9,2.6,8.71,6.28,11.43,11.05,2.72,4.78,4.08,10.47,4.08,17.09,0,5.02-.78,9.5-2.33,13.44s-3.75,7.33-6.6,10.18-6.3,5.01-10.36,6.47c-4.06,1.47-8.56,2.2-13.51,2.2ZM268.03,587.47c2.77,0,5.15-.67,7.16-2.01,2.01-1.34,3.6-3.33,4.77-5.97,1.17-2.63,1.76-6.01,1.76-10.11,0-6.11-1.26-10.61-3.77-13.51-2.51-2.89-5.82-4.33-9.93-4.33-2.68,0-5.04.63-7.1,1.89-2.05,1.26-3.64,3.2-4.77,5.84-1.13,2.64-1.69,6.01-1.69,10.11,0,6.12,1.26,10.66,3.77,13.63s5.78,4.46,9.8,4.46Z"/>
        <path class="cls-4" d="M328.28,601.66c-6.61,0-12.37-1.3-17.27-3.9-4.9-2.59-8.69-6.32-11.37-11.18-2.68-4.85-4.03-10.59-4.03-17.21,0-4.94.75-9.38,2.26-13.31,1.51-3.94,3.71-7.31,6.6-10.11,2.89-2.81,6.34-4.94,10.36-6.41,4.03-1.47,8.5-2.2,13.44-2.2,6.62,0,12.38,1.3,17.27,3.9,4.9,2.6,8.71,6.28,11.43,11.05,2.72,4.78,4.08,10.47,4.08,17.09,0,5.02-.78,9.5-2.33,13.44s-3.75,7.33-6.6,10.18c-2.84,2.84-6.3,5.01-10.36,6.47-4.06,1.47-8.56,2.2-13.51,2.2ZM328.28,587.47c2.77,0,5.15-.67,7.16-2.01,2.01-1.34,3.6-3.33,4.77-5.97,1.17-2.63,1.76-6.01,1.76-10.11,0-6.11-1.26-10.61-3.77-13.51-2.51-2.89-5.82-4.33-9.93-4.33-2.68,0-5.04.63-7.1,1.89-2.05,1.26-3.64,3.2-4.77,5.84-1.13,2.64-1.69,6.01-1.69,10.11,0,6.12,1.26,10.66,3.77,13.63s5.78,4.46,9.8,4.46Z"/>
        <path class="cls-4" d="M382.17,601.41c-3.1,0-5.46-.84-7.1-2.52-1.63-1.67-2.45-4.06-2.45-7.16v-71.48c0-3.18.82-5.59,2.45-7.23,1.64-1.63,4-2.45,7.1-2.45s5.34.82,6.98,2.45c1.63,1.64,2.45,4.04,2.45,7.23v43.84h.25l18.21-20.22c1.84-2.09,3.54-3.66,5.09-4.71,1.55-1.05,3.62-1.57,6.22-1.57s4.58.67,5.96,2.01c1.38,1.34,2.09,2.95,2.14,4.83.04,1.89-.78,3.79-2.45,5.72l-19.22,21.48v-7.16l21.36,24.62c1.59,1.93,2.28,3.86,2.07,5.78-.21,1.93-1.07,3.5-2.58,4.71-1.51,1.21-3.43,1.82-5.78,1.82-2.85,0-5.13-.55-6.85-1.64-1.72-1.09-3.46-2.76-5.22-5.02l-18.97-21.11h-.25v18.09c0,6.45-3.14,9.67-9.42,9.67Z"/>
        <path class="cls-4" d="M225.32,575.28c0,7.9-2.75,14-8.14,18.42-5.44,4.37-12.98,6.58-22.49,6.58h-15.19v-14.42h12.56c4.96,0,8.67-1.02,11.01-2.99s3.53-4.85,3.53-8.73-1.2-6.7-3.53-8.67c-2.33-1.91-5.68-2.93-11.01-2.87-6.28.06-10.11-3.35-10.11-7.3s2.69-6.94,9.99-7.24c4.25-.18,6.76-1.14,8.73-2.69,2.39-1.79,3.53-4.61,3.53-8.26s-1.14-6.34-3.53-8.2c-2.33-1.79-5.92-2.75-10.77-2.75h-18.6v69.93c.3,9.93.6,24.47.6,24.65,0,16.63-18.13,31.23-33.32,31.23-8.67,0-17.17-4.37-22.19-11.43-4.55-5.44-3.95-12.14-3.41-14.78.48-2.87,1.79-5.62,3.77-7.78,3.41-3.71,8.2-5.44,12.8-4.61,3.59.6,6.76,2.63,8.85,5.74,2.33,3.29,3.17,7.3,2.45,11.37-.78,4.67-3.95,9.09-8.02,11.66,1.85.66,3.53.48,5.44.48,10.41,0,14.84-9.99,14.84-21.71,0-.06-.24-22.79-.36-30.33,0-1.2-.06-1.97-.06-2.27v-66.4c0-3.29.9-5.8,2.63-7.54,1.79-1.79,4.31-2.63,7.54-2.63h30.45c6.22,0,11.61.9,16.03,2.75,4.43,1.85,7.84,4.49,10.11,7.9,2.33,3.47,3.47,7.54,3.47,12.32,0,5.26-1.5,9.75-4.49,13.46-2.33,2.75-5.26,4.85-8.85,6.28,4.43,1.26,7.96,3.35,10.65,6.34,3.41,3.71,5.08,8.55,5.08,14.48Z"/>
      </g>
      <path class="cls-4" d="M50.62,527.29c18.56,0,33.66,15.1,33.66,33.66s-15.1,33.66-33.66,33.66-33.66-15.1-33.66-33.66,15.1-33.66,33.66-33.66M50.62,510.33c-27.96,0-50.62,22.66-50.62,50.62s22.66,50.62,50.62,50.62,50.62-22.66,50.62-50.62-22.66-50.62-50.62-50.62h0Z"/>
    </g>
  </g>
</svg>