<?xml version="1.0" encoding="UTF-8"?>
<svg id="Calque_2" data-name="Calque 2" xmlns="http://www.w3.org/2000/svg" viewBox="0 0 958.39 566.93">
  <defs>
    <style>
      .cls-1 {
        fill: #1d1d1b;
        stroke-width: 0px;
      }
    </style>
  </defs>
  <g id="Calque_2-2" data-name="Calque 2">
    <g>
      <g>
        <path class="cls-1" d="M172.03,538.35c-19.17,13.28-37.91,20.9-56.23,22.86-18.32,1.96-35.46-1.18-51.43-9.44-15.96-8.25-30.04-21.15-42.2-38.7-9.38-13.54-15.78-27.17-19.2-40.89-3.44-13.72-3.89-27.11-1.38-40.18,2.51-13.06,7.91-25.57,16.21-37.53,8.3-11.94,19.53-22.83,33.7-32.65,8.71-6.03,18.08-11.1,28.11-15.19,10.04-4.09,20.64-6.67,31.82-7.75,4.72-.41,8.73.45,12,2.6,3.28,2.15,5.77,5.07,7.5,8.76,1.73,3.69,2.44,7.49,2.16,11.38-.28,3.89-1.73,7.29-4.38,10.19-2.64,2.91-6.65,4.79-12.01,5.64-7.32.78-14.44,2.56-21.35,5.31-6.92,2.76-13.91,6.59-21,11.51-11.44,7.93-19.55,16.7-24.32,26.33-4.77,9.63-6.18,19.9-4.22,30.82,1.97,10.93,7.13,22.42,15.51,34.51,12.61,18.2,26.55,28.94,41.8,32.19,15.25,3.26,31.5-1.09,48.74-13.03,5.8-4.02,11.36-8.71,16.7-14.09,5.35-5.37,10.28-11.16,14.78-17.39l3.54,20.09-32.15-46.4-21.74,15.07c-4.83,3.35-9.37,4.72-13.62,4.08-4.26-.63-7.83-3.04-10.73-7.23-3.01-4.35-4.05-8.57-3.08-12.7.95-4.12,3.85-7.86,8.68-11.21l37.94-26.29c4.83-3.35,9.39-4.59,13.68-3.76,4.28.84,8.09,3.69,11.44,8.52l38.85,56.06c2.9,4.19,4.55,8.29,4.95,12.3.39,4.02-.88,8.01-3.86,11.97-5.46,7.61-12.14,15.33-20.05,23.21-7.91,7.86-16.29,14.87-25.15,21Z"/>
        <path class="cls-1" d="M259.66,566.34c-7.45,0-13.14-1.97-17.05-5.89-3.92-3.91-5.89-9.5-5.89-16.75v-104.37c0-7.25,1.91-12.8,5.74-16.61,3.81-3.83,9.16-5.73,16.02-5.73s12.44,1.9,16.16,5.73c3.73,3.81,5.59,9.37,5.59,16.61v15.28h-2.94c2.35-11.76,7.55-20.88,15.59-27.34,8.03-6.47,18.42-10.09,31.16-10.88,4.89-.38,8.68.85,11.32,3.68,2.65,2.84,4.06,7.51,4.27,13.97.38,6.07-.83,10.87-3.68,14.4-2.84,3.53-7.6,5.69-14.26,6.48l-6.75.59c-11.18.97-19.45,4.21-24.85,9.69-5.39,5.5-8.08,13.43-8.08,23.82v54.69c0,7.25-1.91,12.84-5.73,16.75-3.83,3.92-9.37,5.89-16.61,5.89Z"/>
        <path class="cls-1" d="M424.58,566.93c-15.48,0-28.96-3.05-40.41-9.12-11.47-6.07-20.34-14.79-26.6-26.17-6.28-11.36-9.42-24.79-9.42-40.28,0-11.57,1.76-21.94,5.29-31.16,3.54-9.21,8.68-17.1,15.44-23.67,6.77-6.58,14.85-11.57,24.25-15,9.42-3.43,19.89-5.15,31.46-5.15,15.49,0,28.97,3.05,40.43,9.12,11.47,6.08,20.38,14.7,26.76,25.87,6.37,11.18,9.56,24.51,9.56,39.99,0,11.76-1.82,22.24-5.44,31.46s-8.78,17.16-15.44,23.82c-6.66,6.66-14.75,11.72-24.25,15.13-9.5,3.43-20.04,5.15-31.61,5.15ZM424.58,533.71c6.48,0,12.06-1.57,16.76-4.7,4.7-3.14,8.42-7.79,11.17-13.97,2.75-6.17,4.12-14.05,4.12-23.67,0-14.3-2.94-24.84-8.82-31.61-5.88-6.75-13.62-10.14-23.23-10.14-6.28,0-11.8,1.48-16.61,4.42-4.8,2.94-8.52,7.49-11.17,13.67-2.64,6.18-3.96,14.07-3.96,23.67,0,14.31,2.94,24.94,8.82,31.9,5.88,6.96,13.52,10.45,22.93,10.45Z"/>
        <path class="cls-1" d="M569.15,566.93c-15.49,0-28.96-3.05-40.43-9.12-11.47-6.07-20.33-14.79-26.6-26.17-6.28-11.36-9.41-24.79-9.41-40.28,0-11.57,1.76-21.94,5.29-31.16,3.53-9.21,8.67-17.1,15.44-23.67,6.77-6.58,14.85-11.57,24.25-15,9.41-3.43,19.89-5.15,31.46-5.15,15.48,0,28.96,3.05,40.43,9.12,11.46,6.08,20.38,14.7,26.76,25.87,6.36,11.18,9.54,24.51,9.54,39.99,0,11.76-1.8,22.24-5.43,31.46-3.64,9.21-8.78,17.16-15.44,23.82-6.67,6.66-14.75,11.72-24.25,15.13-9.52,3.43-20.04,5.15-31.61,5.15ZM569.15,533.71c6.47,0,12.06-1.57,16.76-4.7,4.7-3.14,8.42-7.79,11.17-13.97,2.73-6.17,4.12-14.05,4.12-23.67,0-14.3-2.94-24.84-8.82-31.61-5.88-6.75-13.63-10.14-23.23-10.14-6.28,0-11.81,1.48-16.61,4.42-4.81,2.94-8.53,7.49-11.17,13.67-2.65,6.18-3.98,14.07-3.98,23.67,0,14.31,2.95,24.94,8.83,31.9,5.88,6.96,13.52,10.45,22.93,10.45Z"/>
        <path class="cls-1" d="M730.55,566.34c-5.69,0-10.69-1.53-15-4.57-4.31-3.04-7.74-7.59-10.29-13.67l-44.39-102.3c-2.16-5.1-2.94-9.84-2.35-14.26.59-4.42,2.69-7.94,6.33-10.58,3.62-2.65,8.67-3.96,15.13-3.96,5.29,0,9.6,1.22,12.93,3.66,3.34,2.46,6.28,7.11,8.82,13.97l34.7,88.2h-9.41l36.16-88.5c2.73-6.66,5.77-11.21,9.11-13.67,3.34-2.45,7.94-3.66,13.82-3.66,5.1,0,9.16,1.31,12.2,3.96,3.05,2.64,4.91,6.12,5.59,10.43.68,4.32-.15,9.02-2.5,14.11l-45.27,102.61c-2.56,6.28-5.93,10.88-10.14,13.82-4.22,2.94-9.37,4.42-15.44,4.42Z"/>
        <path class="cls-1" d="M897.84,566.93c-17.06,0-31.72-3.09-43.95-9.27-12.25-6.17-21.67-14.89-28.23-26.17-6.56-11.27-9.84-24.54-9.84-39.83s3.13-27.99,9.41-39.25c6.28-11.27,15.04-20.1,26.32-26.47,11.27-6.36,24.05-9.56,38.36-9.56,10.39,0,19.8,1.72,28.22,5.15,8.44,3.43,15.68,8.33,21.77,14.7,6.07,6.37,10.68,14.11,13.81,23.23,3.13,9.11,4.7,19.25,4.7,30.42,0,3.73-1.18,6.52-3.53,8.38-2.35,1.87-5.78,2.8-10.28,2.8h-92.32v-22.94h74.09l-4.7,4.12c0-8.03-1.18-14.74-3.53-20.14-2.35-5.39-5.73-9.45-10.14-12.2-4.4-2.75-9.84-4.12-16.31-4.12-7.26,0-13.43,1.67-18.52,4.99-5.1,3.34-9.01,8.15-11.76,14.41-2.75,6.28-4.12,13.82-4.12,22.64v2.35c0,14.9,3.47,25.87,10.43,32.92,6.96,7.07,17.29,10.6,31.02,10.6,4.7,0,10.09-.59,16.17-1.76,6.07-1.18,11.76-3.05,17.05-5.59,4.51-2.16,8.53-2.88,12.06-2.2,3.53.68,6.26,2.3,8.23,4.85,1.96,2.54,3.09,5.48,3.38,8.82.3,3.34-.44,6.6-2.2,9.84-1.76,3.24-4.7,5.93-8.82,8.08-6.67,3.73-14.16,6.52-22.49,8.38-8.34,1.86-16.42,2.8-24.25,2.8Z"/>
      </g>
      <g>
        <path class="cls-1" d="M595.64,202.96c-14.7,0-27.5-2.9-38.38-8.66-10.89-5.76-19.32-14.05-25.26-24.85-5.96-10.79-8.94-23.54-8.94-38.25,0-10.98,1.67-20.84,5.02-29.59,3.36-8.75,8.24-16.24,14.66-22.47,6.43-6.24,14.1-10.98,23.03-14.24,8.94-3.26,18.89-4.89,29.87-4.89,14.71,0,27.51,2.9,38.39,8.66,10.89,5.78,19.36,13.96,25.41,24.56,6.05,10.62,9.07,23.28,9.07,37.97,0,11.16-1.73,21.12-5.17,29.87s-8.33,16.29-14.66,22.61c-6.32,6.32-14.01,11.13-23.03,14.37-9.02,3.26-19.03,4.89-30.01,4.89ZM595.64,171.42c6.15,0,11.45-1.49,15.92-4.47,4.47-2.99,8-7.4,10.61-13.27,2.61-5.85,3.91-13.35,3.91-22.47,0-13.58-2.79-23.59-8.37-30.01-5.58-6.41-12.93-9.63-22.06-9.63-5.96,0-11.2,1.4-15.77,4.19-4.56,2.79-8.09,7.11-10.61,12.98-2.51,5.87-3.76,13.36-3.76,22.47,0,13.59,2.79,23.68,8.37,30.29,5.58,6.61,12.84,9.92,21.77,9.92Z"/>
        <path class="cls-1" d="M729.53,202.96c-14.7,0-27.5-2.9-38.38-8.66-10.89-5.76-19.32-14.05-25.26-24.85-5.96-10.79-8.94-23.54-8.94-38.25,0-10.98,1.67-20.84,5.02-29.59,3.36-8.75,8.24-16.24,14.66-22.47,6.43-6.24,14.1-10.98,23.03-14.24,8.94-3.26,18.89-4.89,29.87-4.89,14.71,0,27.51,2.9,38.39,8.66,10.89,5.78,19.36,13.96,25.41,24.56,6.05,10.62,9.07,23.28,9.07,37.97,0,11.16-1.73,21.12-5.17,29.87s-8.33,16.29-14.66,22.61c-6.32,6.32-14.01,11.13-23.03,14.37-9.02,3.26-19.03,4.89-30.01,4.89ZM729.53,171.42c6.15,0,11.45-1.49,15.92-4.47,4.47-2.99,8-7.4,10.61-13.27,2.61-5.85,3.91-13.35,3.91-22.47,0-13.58-2.79-23.59-8.37-30.01-5.58-6.41-12.93-9.63-22.06-9.63-5.96,0-11.2,1.4-15.77,4.19-4.56,2.79-8.09,7.11-10.61,12.98-2.51,5.87-3.76,13.36-3.76,22.47,0,13.59,2.79,23.68,8.37,30.29,5.58,6.61,12.84,9.92,21.77,9.92Z"/>
        <path class="cls-1" d="M849.29,202.4c-6.88,0-12.14-1.87-15.77-5.6-3.62-3.71-5.44-9.02-5.44-15.9V22.06c0-7.08,1.82-12.42,5.44-16.06,3.63-3.62,8.89-5.44,15.77-5.44s11.87,1.82,15.5,5.44c3.62,3.63,5.44,8.98,5.44,16.06v97.43h.56l40.48-44.94c4.09-4.65,7.87-8.14,11.31-10.48,3.44-2.32,8.05-3.48,13.83-3.48s10.18,1.48,13.25,4.47c3.08,2.97,4.65,6.56,4.75,10.74.09,4.19-1.73,8.43-5.45,12.71l-42.71,47.74v-15.92l47.46,54.72c3.53,4.28,5.06,8.57,4.61,12.84-.47,4.28-2.38,7.78-5.73,10.48-3.35,2.69-7.63,4.05-12.84,4.05-6.34,0-11.41-1.22-15.22-3.63-3.82-2.41-7.69-6.14-11.59-11.16l-42.15-46.9h-.56v40.21c0,14.33-6.98,21.5-20.94,21.5Z"/>
        <g>
          <path class="cls-1" d="M307.97,313.34c-18.82,0-37.28-9.5-48.17-24.8l-.07-.09c-10.25-12.27-8.16-27.32-7.28-31.64,1.04-6.2,3.88-12.08,8.03-16.61,5.98-6.51,14.1-10.24,22.29-10.24,1.63,0,3.26.15,4.86.44,7.68,1.28,14.34,5.6,18.75,12.16,4.91,6.93,6.77,15.52,5.23,24.22-1.62,9.73-8.2,19.3-17.18,24.97l-2.46,1.56,2.75.98c2.96,1.05,5.7,1.19,8.22,1.19.7,0,1.41-.01,2.13-.02.73-.01,1.46-.03,2.22-.03,21.53,0,34.39-18.57,34.39-49.67,0-.17-.54-50.99-.8-67.42,0-1.78-.06-3.16-.1-4.08-.02-.43-.03-.75-.03-.95V25.75c0-6.84,1.83-12.14,5.43-15.75,3.66-3.66,8.81-5.43,15.75-5.43h67.66c13.77,0,25.57,2.02,35.08,6.01,9.65,4.04,17,9.77,21.83,17.03,5.03,7.48,7.47,16.18,7.47,26.6,0,11.31-3.25,21.08-9.66,29.02-5.08,5.99-11.34,10.43-19.1,13.53l-3.86,1.54,4,1.13c9.66,2.74,17.18,7.21,23,13.68,7.26,7.9,10.94,18.4,10.94,31.22,0,16.86-5.91,30.27-17.56,39.85-11.82,9.48-28.34,14.3-49.08,14.3h-32.35v-29.2h26.5c11.36,0,19.9-2.35,25.38-6.98,5.54-4.69,8.35-11.58,8.35-20.49s-2.81-15.67-8.35-20.36c-5.59-4.59-13.34-6.72-24.4-6.72-.33,0-1.34,0-1.34,0-6.21,0-11.52-1.57-15.34-4.55-3.45-2.69-5.35-6.33-5.35-10.25,0-9.17,7.01-14.1,20.84-14.67,8.95-.38,15.19-2.32,20.23-6.29,5.55-4.16,8.38-10.72,8.38-19.46s-2.82-15.02-8.39-19.33c-5.53-4.26-13.87-6.41-24.8-6.41h-42.76v156.82c.67,22.17,1.32,54.18,1.33,54.77,0,36.6-39.94,67.97-72.63,67.97Z"/>
          <path class="cls-1" d="M429.6,5.99c13.58,0,25.19,1.98,34.53,5.9,9.39,3.93,16.52,9.49,21.21,16.52,4.86,7.23,7.23,15.67,7.23,25.8,0,10.97-3.14,20.42-9.32,28.1-4.95,5.82-11.01,10.12-18.54,13.13l-7.72,3.09,8,2.27c9.39,2.67,16.7,7,22.35,13.28,7,7.62,10.55,17.79,10.55,30.25,0,16.65-5.58,29.32-17.02,38.73-11.58,9.29-27.8,14-48.21,14h-30.93v-26.37h25.08c11.71,0,20.55-2.46,26.29-7.32,5.87-4.97,8.85-12.23,8.85-21.57s-2.98-16.47-8.88-21.47c-5.85-4.8-13.88-7.03-25.28-7.03-.33,0-.67,0-1.01,0h-.33c-12.65,0-19.27-6.73-19.27-13.38,0-8.26,6.55-12.72,19.49-13.25,9.25-.39,15.74-2.42,21.02-6.57,5.94-4.47,8.95-11.4,8.95-20.59s-3.01-15.85-8.95-20.46c-5.78-4.45-14.41-6.7-25.66-6.7h-44.18v158.32c.67,22.24,1.32,54,1.33,54.68,0,16.26-8.53,33.19-23.41,46.44-14.14,12.6-32.01,20.12-47.8,20.12-18.37,0-36.38-9.27-47.01-24.2l-.06-.09-.07-.08c-9.84-11.78-7.83-26.29-6.98-30.45v-.05s.02-.05.02-.05c.98-5.89,3.7-11.51,7.67-15.83,5.71-6.22,13.46-9.78,21.25-9.78,1.54,0,3.09.14,4.65.42,7.28,1.21,13.59,5.31,17.79,11.55l.02.03.02.03c4.67,6.59,6.44,14.8,4.97,23.15-1.56,9.33-7.89,18.53-16.53,23.99l-4.93,3.12,5.5,1.95c3.16,1.12,6.05,1.28,8.7,1.28.71,0,1.43-.01,2.15-.02.72-.01,1.45-.03,2.19-.03,11.8,0,21.33-5.44,27.58-15.72,5.38-8.85,8.22-21.08,8.22-35.37,0-.17-.54-51.02-.8-67.4,0-1.83-.06-3.23-.1-4.16-.02-.4-.03-.7-.03-.89V25.75c0-6.45,1.69-11.42,5.02-14.75,3.38-3.38,8.2-5.02,14.75-5.02h67.66M429.6,3.15h-67.66c-7.18,0-12.76,1.86-16.75,5.85-3.86,3.86-5.85,9.44-5.85,16.75v147.56c0,.67.13,2.39.13,5.05.27,16.75.8,67.27.8,67.4,0,26.06-9.84,48.26-32.97,48.26-1.5,0-2.94.05-4.35.05-2.58,0-5.08-.17-7.75-1.11,9.04-5.72,16.09-15.55,17.81-25.92,1.6-9.04-.27-17.95-5.45-25.26-4.65-6.91-11.7-11.43-19.67-12.76-1.7-.31-3.41-.46-5.11-.46-8.57,0-17.02,3.82-23.33,10.7-4.39,4.79-7.31,10.9-8.38,17.28-1.2,5.85-2.53,20.74,7.58,32.84,11.17,15.69,30.04,25.39,49.32,25.39,33.77,0,74.05-32.44,74.05-69.39,0-.4-.66-32.7-1.33-54.77V35.19h41.34c10.77,0,18.74,2.13,23.93,6.11,5.32,4.12,7.84,10.24,7.84,18.21s-2.53,14.36-7.84,18.35c-4.39,3.46-9.97,5.58-19.41,5.98-16.22.66-22.2,7.31-22.2,16.09s8.36,16.22,22.1,16.22c.12,0,.24,0,.36,0,.33,0,.66,0,.98,0,11.26,0,18.44,2.25,23.48,6.39,5.18,4.39,7.84,10.77,7.84,19.28s-2.66,15.02-7.84,19.41-13.43,6.65-24.46,6.65h-27.92v32.04h33.77c21.14,0,37.89-4.92,49.98-14.62,11.96-9.84,18.08-23.4,18.08-40.94,0-13.16-3.72-23.93-11.3-32.17-5.98-6.65-13.83-11.3-23.66-14.09,7.98-3.19,14.49-7.84,19.67-13.96,6.65-8.24,9.97-18.21,9.97-29.91,0-10.63-2.53-19.68-7.71-27.39-5.05-7.58-12.63-13.43-22.47-17.55-9.84-4.12-21.8-6.12-35.63-6.12h0Z"/>
        </g>
      </g>
      <path class="cls-1" d="M112.49,37.68c41.25,0,74.8,33.56,74.8,74.8s-33.56,74.8-74.8,74.8-74.8-33.56-74.8-74.8S71.24,37.68,112.49,37.68M112.49,0C50.36,0,0,50.36,0,112.49s50.36,112.49,112.49,112.49,112.49-50.36,112.49-112.49S174.61,0,112.49,0h0Z"/>
    </g>
  </g>
</svg>