<?xml version="1.0" encoding="UTF-8"?>
<svg id="Calque_2" data-name="Calque 2" xmlns="http://www.w3.org/2000/svg" viewBox="0 0 78.18 78.18">
  <defs>
    <style>
      .cls-1 {
        fill: #1d1d1b;
        stroke-width: 0px;
      }
    </style>
  </defs>
  <g id="Calque_2-2" data-name="Calque 2">
    <g>
      <g>
        <path class="cls-1" d="M53.51,24.16c0,.37-.03.74-.1,1.11-.33,1.92-1.54,3.59-3.39,4.69-1.79,1.36-3.96,2.34-7.03,2.87-.66.11-1.17.17-1.77.28-.15.03-.28-.06-.31-.21-.12-.55-.38-1.66-.48-2.13-.03-.16.06-.3.22-.32,2.25-.36,4.13-1.09,6.08-1.85.99-.39,1.85-1.09,2.2-1.79.88-1.77.13-3.54-.39-4.23-.69-.92-1.46-1.49-3.21-1.55-.69-.03-1.46.12-2.29.41-.16.06-.68.37-1.03.57-.19.12-.37.22-.5.29l-.09.1h-.14c-.52.15-1.31-.09-1.49-.68-.25-.8.11-1.23.45-1.45.06-.03.83-.38,1.37-.67.51-.26.86-.55,1.17-.97,1.3-1.78,1.06-3.56.24-4.53-.76-.9-2.24-1.22-3.95-.84-.76.18-2.78,1.13-3.73,1.94-.17.14-.21.32-.2.54.11,2.81,3.11,18.04,3.53,20.2.02.1-.01.19-.09.26-.29.25-1.06.9-1.6,1.35-.16.14-.41.05-.45-.16-.63-3.22-3.62-22.28-3.64-22.49-.02-.16.05-.36.14-.52.14-.24,1.98-2.04,3.63-2.86,1.63-.8,3.16-1.16,4.97-1.16,1.28,0,3.09.63,3.9,1.68,1.33,1.7,1.4,3.59.19,6.06.75-.08,1.65-.14,2-.14,1.59,0,3.22.78,4.26,2.03,1,1.19,1.53,2.66,1.53,4.17Z"/>
        <path class="cls-1" d="M39.65,44.24c-.51.47-1.29,1.19-1.59,1.47-.07.06-.1.15-.09.25.25,1.77.26,1.54.45,3.26.02.15.15.27.3.25.54-.05,1.47-.18,1.93-.24.16-.02.26-.16.24-.32-.25-1.91-.33-1.81-.78-4.49-.04-.22-.3-.32-.47-.17ZM41.69,58.76c-.02-.44-.04-1-.09-1.73-.01-.17-.17-.3-.33-.27-.52.09-1.2.19-1.79.26-.15.02-.25.16-.25.3.03.6.05,1.06.06,1.46v.12c.02.14.01.68.01.69,0,3.21-2.31,5.82-5.15,5.82-.53,0-1.06-.1-1.57-.28,1.12-.7,1.98-1.91,2.2-3.18.2-1.11-.04-2.22-.67-3.12-.58-.84-1.44-1.4-2.42-1.57-1.27-.22-2.58.25-3.5,1.27-.54.59-.9,1.33-1.04,2.12-.14.72-.31,2.55.93,4.05,1.38,1.92,3.71,3.12,6.07,3.12,4.17,0,7.56-3.69,7.56-8.23,0-.07-.01-.54-.02-.83ZM49.52,43.14c-.03-.51-.28-1-.77-1.53-.08-.09-.16-.15-1.05-.73-1.24-.83-3.57-2.37-5.18-3.67-.48-.4-1.19-.39-1.66.02-.28.24-.7.57-1.11.9-.09.08-.48.38-.55.44-1,.85-3.97,3.17-3.97,3.17-.75.62-.75,1.45-.37,1.95.25.32.54.5.87.54.35.04.72-.1,1.09-.4.03-.03,4.33-3.78,4.45-3.87.3-.23.78-.34,1.18-.09.53.35,3.44,2.38,4.12,2.95.3.25.44.69.43,1.13-.06,3.58-3.43,6.91-5.93,7.57-3.93,1.03-6.66-.53-7.54-1.09-2.83-1.81-5.24-6.14-4.59-9.78.61-3.46,1.62-4.52,4.73-5.81.12-.05.19-.18.17-.31-.11-.54-.37-1.68-.58-2.52-.04-.16-.2-.25-.36-.21-5.27,1.41-7.78,4.61-8.2,9.68-.32,3.91,1.8,8.32,5.16,10.72,2.45,1.75,5.25,3.35,10.99,2.38,4.83-.81,8.25-4.85,8.64-9.56.04-.45.08-1.13.04-1.88Z"/>
      </g>
      <path class="cls-1" d="M39.09,3.13c19.83,0,35.96,16.13,35.96,35.96s-16.13,35.96-35.96,35.96S3.13,58.92,3.13,39.09,19.26,3.13,39.09,3.13M39.09,0C17.5,0,0,17.5,0,39.09s17.5,39.09,39.09,39.09,39.09-17.5,39.09-39.09S60.68,0,39.09,0h0Z"/>
    </g>
  </g>
</svg>