<svg width="397" height="66" viewBox="0 0 397 66" fill="none" xmlns="http://www.w3.org/2000/svg">
<mask id="mask0_498_6312" style="mask-type:alpha" maskUnits="userSpaceOnUse" x="0" y="0" width="397" height="66">
<path d="M247.639 37.819C243.996 40.3425 240.433 41.7769 236.95 42.1488C233.466 42.5206 230.222 41.9363 227.191 40.369C224.16 38.8018 221.474 36.358 219.187 33.0376C217.406 30.461 216.182 27.8844 215.544 25.2812C214.879 22.6781 214.8 20.128 215.278 17.6577C215.757 15.1873 216.794 12.7966 218.363 10.5388C219.932 8.2809 222.059 6.20899 224.771 4.34957C226.42 3.20736 228.201 2.2511 230.116 1.48077C232.03 0.71044 234.025 0.205742 236.152 0.019801C237.056 -0.0598881 237.801 0.0994901 238.439 0.524499C239.05 0.922944 239.529 1.48077 239.875 2.19797C240.22 2.91517 240.327 3.60581 240.274 4.34957C240.22 5.09334 239.955 5.73085 239.449 6.28868C238.944 6.8465 238.2 7.19182 237.163 7.3512C235.78 7.51058 234.424 7.82933 233.094 8.36059C231.791 8.89185 230.462 9.60905 229.106 10.5388C226.925 12.0529 225.383 13.6998 224.479 15.5326C223.575 17.3655 223.309 19.3046 223.681 21.3765C224.053 23.4484 225.037 25.6266 226.633 27.9375C229.026 31.3907 231.685 33.4361 234.583 34.047C237.482 34.658 240.566 33.8345 243.837 31.5767C244.927 30.8064 245.991 29.9298 247.001 28.8938C248.012 27.8844 248.942 26.7688 249.82 25.6L250.484 29.3985L244.369 20.6061L240.247 23.475C239.316 24.1125 238.465 24.3781 237.668 24.2453C236.87 24.139 236.179 23.6609 235.62 22.864C235.062 22.0671 234.849 21.2437 235.035 20.4468C235.221 19.6764 235.78 18.9592 236.684 18.3217L243.89 13.3279C244.821 12.6904 245.672 12.4513 246.496 12.6107C247.32 12.7701 248.038 13.3013 248.676 14.231L256.042 24.8562C256.6 25.6531 256.893 26.4235 256.973 27.1938C257.052 27.9641 256.813 28.7079 256.228 29.4782C255.191 30.9126 253.915 32.4001 252.426 33.8877C250.91 35.3752 249.341 36.7033 247.639 37.8721V37.819Z" fill="#1D1D1B"/>
<path d="M264.285 43.1317C262.875 43.1317 261.785 42.7598 261.041 42.016C260.296 41.2723 259.924 40.2097 259.924 38.8285V19.0124C259.924 17.6312 260.296 16.5952 261.014 15.8514C261.732 15.1342 262.742 14.7624 264.045 14.7624C265.348 14.7624 266.412 15.1342 267.103 15.8514C267.821 16.5686 268.167 17.6312 268.167 19.0124V21.9078H267.609C268.061 19.6765 269.044 17.9499 270.56 16.728C272.076 15.5061 274.07 14.8155 276.49 14.6561C277.421 14.5764 278.139 14.8155 278.644 15.3467C279.149 15.878 279.415 16.7811 279.441 18.003C279.521 19.1453 279.282 20.075 278.75 20.739C278.218 21.4031 277.314 21.8281 276.038 21.9609L274.761 22.0672C272.634 22.2531 271.065 22.8641 270.028 23.9C269.018 24.936 268.486 26.4501 268.486 28.4158V38.8019C268.486 40.1832 268.114 41.2457 267.396 41.9895C266.678 42.7332 265.614 43.1051 264.232 43.1051L264.285 43.1317Z" fill="#1D1D1B"/>
<path d="M295.608 43.2644C292.657 43.2644 290.104 42.6801 287.924 41.5378C285.743 40.3956 284.068 38.7222 282.871 36.5706C281.675 34.4189 281.09 31.8689 281.09 28.9204C281.09 26.7157 281.436 24.75 282.1 22.9968C282.765 21.2437 283.749 19.7562 285.025 18.5077C286.302 17.2592 287.844 16.303 289.625 15.6654C291.407 15.0014 293.401 14.6826 295.608 14.6826C298.56 14.6826 301.113 15.267 303.293 16.4092C305.474 17.5514 307.175 19.1983 308.372 21.3234C309.595 23.4484 310.18 25.9719 310.18 28.9204C310.18 31.1517 309.834 33.1439 309.143 34.8971C308.452 36.6502 307.468 38.1643 306.218 39.4128C304.968 40.6613 303.426 41.6441 301.618 42.2816C299.81 42.9457 297.815 43.2644 295.608 43.2644ZM295.608 36.9424C296.832 36.9424 297.895 36.6502 298.799 36.0393C299.703 35.4549 300.395 34.5518 300.927 33.383C301.458 32.2142 301.698 30.7267 301.698 28.8938C301.698 26.1844 301.139 24.1922 300.022 22.8906C298.906 21.6156 297.443 20.9781 295.608 20.9781C294.412 20.9781 293.375 21.2702 292.444 21.8281C291.54 22.3859 290.822 23.2625 290.317 24.4312C289.812 25.6 289.572 27.0876 289.572 28.9204C289.572 31.6298 290.131 33.6486 291.248 34.9768C292.364 36.3049 293.827 36.969 295.608 36.969V36.9424Z" fill="#1D1D1B"/>
<path d="M323.05 43.2644C320.098 43.2644 317.546 42.6801 315.365 41.5378C313.185 40.3956 311.509 38.7222 310.313 36.5706C309.116 34.4189 308.531 31.8689 308.531 28.9204C308.531 26.7157 308.877 24.75 309.542 22.9968C310.206 21.2437 311.19 19.7562 312.467 18.5077C313.743 17.2592 315.285 16.303 317.067 15.6654C318.848 15.0279 320.843 14.6826 323.05 14.6826C326.001 14.6826 328.554 15.267 330.735 16.4092C332.915 17.5514 334.617 19.1983 335.813 21.3234C337.01 23.4484 337.622 25.9719 337.622 28.9204C337.622 31.1517 337.276 33.1439 336.585 34.8971C335.893 36.6502 334.909 38.1643 333.66 39.4128C332.383 40.6878 330.868 41.6441 329.059 42.2816C327.251 42.9457 325.257 43.2644 323.05 43.2644ZM323.05 36.9424C324.273 36.9424 325.337 36.6502 326.241 36.0393C327.145 35.4549 327.836 34.5518 328.368 33.383C328.9 32.2142 329.139 30.7267 329.139 28.8938C329.139 26.1844 328.581 24.1922 327.464 22.8906C326.347 21.6156 324.885 20.9781 323.05 20.9781C321.853 20.9781 320.816 21.2702 319.886 21.8281C318.981 22.3859 318.263 23.2625 317.758 24.4312C317.253 25.6 317.014 27.0876 317.014 28.9204C317.014 31.6298 317.572 33.6486 318.689 34.9768C319.806 36.3049 321.268 36.969 323.05 36.969V36.9424Z" fill="#1D1D1B"/>
<path d="M353.711 43.1315C352.621 43.1315 351.69 42.8393 350.866 42.2549C350.041 41.6706 349.403 40.8205 348.898 39.6518L340.469 20.2342C340.07 19.2779 339.91 18.3748 340.017 17.5248C340.123 16.6747 340.522 16.0107 341.213 15.506C341.904 15.0013 342.862 14.7622 344.085 14.7622C345.095 14.7622 345.92 15.0013 346.531 15.4528C347.169 15.931 347.728 16.8076 348.206 18.1091L354.801 34.8439H353.019L359.88 18.056C360.412 16.781 360.97 15.931 361.608 15.4528C362.246 15.0013 363.124 14.7622 364.241 14.7622C365.198 14.7622 365.969 15.0013 366.554 15.506C367.139 16.0107 367.485 16.6747 367.618 17.4982C367.751 18.3217 367.591 19.1982 367.139 20.1811L358.55 39.6518C358.072 40.8471 357.433 41.7237 356.636 42.2815C355.838 42.8393 354.854 43.1315 353.711 43.1315Z" fill="#1D1D1B"/>
<path d="M385.486 43.2645C382.242 43.2645 379.45 42.6801 377.137 41.5114C374.797 40.3426 373.015 38.6957 371.766 36.5441C370.516 34.419 369.904 31.8956 369.904 29.0002C369.904 26.1048 370.489 23.6876 371.686 21.5625C372.882 19.4375 374.531 17.7375 376.685 16.5421C378.812 15.3468 381.259 14.7358 383.971 14.7358C385.939 14.7358 387.72 15.0546 389.342 15.7187C390.938 16.3827 392.32 17.2859 393.464 18.5078C394.607 19.7297 395.485 21.1907 396.096 22.9173C396.681 24.6439 397 26.583 397 28.6814C397 29.3986 396.788 29.9299 396.336 30.2752C395.883 30.6205 395.245 30.8065 394.394 30.8065H376.871V26.4501H390.938L390.033 27.2205C390.033 25.7064 389.821 24.4313 389.369 23.3954C388.917 22.386 388.279 21.6157 387.454 21.0844C386.63 20.5531 385.593 20.3141 384.343 20.3141C382.96 20.3141 381.79 20.6328 380.833 21.2703C379.876 21.9079 379.131 22.811 378.599 24.0063C378.068 25.2017 377.828 26.6361 377.828 28.3095V28.7611C377.828 31.5768 378.493 33.6753 379.823 35.0034C381.152 36.3316 383.12 37.0222 385.726 37.0222C386.63 37.0222 387.64 36.916 388.81 36.6769C389.954 36.4644 391.044 36.0925 392.054 35.6144C392.905 35.2159 393.676 35.0566 394.341 35.1894C395.006 35.3222 395.538 35.6144 395.91 36.1191C396.282 36.5972 396.495 37.155 396.548 37.7926C396.601 38.4301 396.468 39.041 396.123 39.652C395.777 40.2629 395.219 40.7676 394.448 41.1926C393.171 41.9098 391.762 42.4411 390.166 42.7864C388.571 43.1317 387.055 43.3177 385.566 43.3177L385.486 43.2645Z" fill="#1D1D1B"/>
<path d="M119.153 43.2644C116.202 43.2644 113.649 42.6801 111.469 41.5378C109.288 40.3956 107.613 38.7222 106.416 36.5706C105.22 34.4189 104.635 31.8689 104.635 28.9204C104.635 26.7157 104.98 24.75 105.645 22.9968C106.31 21.2437 107.294 19.7562 108.57 18.5077C109.847 17.2592 111.389 16.303 113.17 15.6654C114.952 15.0014 116.946 14.6826 119.153 14.6826C122.105 14.6826 124.658 15.267 126.838 16.4092C129.019 17.5514 130.72 19.1983 131.917 21.3234C133.14 23.4484 133.725 25.9719 133.725 28.9204C133.725 31.1517 133.379 33.1439 132.688 34.8971C131.997 36.6502 131.013 38.1643 129.763 39.4128C128.513 40.6613 126.971 41.6441 125.163 42.2816C123.355 42.9457 121.36 43.2644 119.153 43.2644ZM119.153 36.9424C120.377 36.9424 121.44 36.6502 122.344 36.0393C123.248 35.4549 123.94 34.5518 124.471 33.383C125.003 32.2142 125.243 30.7267 125.243 28.8938C125.243 26.1844 124.684 24.1922 123.567 22.8906C122.451 21.6156 120.988 20.9781 119.153 20.9781C117.957 20.9781 116.92 21.2702 115.989 21.8281C115.085 22.3859 114.367 23.2625 113.862 24.4312C113.357 25.6 113.117 27.0876 113.117 28.9204C113.117 31.6298 113.676 33.6486 114.792 34.9768C115.909 36.3049 117.372 36.969 119.153 36.969V36.9424Z" fill="#1D1D1B"/>
<path d="M145.931 43.2644C142.979 43.2644 140.426 42.6801 138.246 41.5378C136.066 40.3956 134.39 38.7222 133.194 36.5706C131.997 34.4189 131.412 31.8689 131.412 28.9204C131.412 26.7157 131.758 24.75 132.423 22.9968C133.087 21.2437 134.071 19.7562 135.348 18.5077C136.624 17.2592 138.166 16.303 139.948 15.6654C141.729 15.0014 143.724 14.6826 145.931 14.6826C148.882 14.6826 151.435 15.267 153.615 16.4092C155.796 17.5514 157.498 19.1983 158.694 21.3234C159.917 23.4484 160.502 25.9719 160.502 28.9204C160.502 31.1517 160.157 33.1439 159.465 34.8971C158.774 36.6502 157.79 38.1643 156.54 39.4128C155.291 40.6613 153.748 41.6441 151.94 42.2816C150.132 42.9457 148.138 43.2644 145.931 43.2644ZM145.931 36.9424C147.154 36.9424 148.217 36.6502 149.122 36.0393C150.026 35.4549 150.717 34.5518 151.249 33.383C151.781 32.2142 152.02 30.7267 152.02 28.8938C152.02 26.1844 151.462 24.1922 150.345 22.8906C149.228 21.6156 147.765 20.9781 145.931 20.9781C144.734 20.9781 143.697 21.2702 142.766 21.8281C141.862 22.3859 141.144 23.2625 140.639 24.4312C140.134 25.6 139.895 27.0876 139.895 28.9204C139.895 31.6298 140.453 33.6486 141.57 34.9768C142.687 36.3049 144.149 36.969 145.931 36.969V36.9424Z" fill="#1D1D1B"/>
<path d="M169.889 43.1318C168.507 43.1318 167.47 42.7599 166.725 42.0161C166.007 41.2724 165.635 40.2098 165.635 38.8286V7.11229C165.635 5.70445 166.007 4.64193 166.725 3.89817C167.443 3.18096 168.507 2.80908 169.889 2.80908C171.272 2.80908 172.256 3.18096 173 3.89817C173.718 4.61537 174.091 5.70445 174.091 7.11229V26.583H174.197L182.281 17.6047C183.105 16.675 183.849 15.9843 184.541 15.5062C185.232 15.0546 186.163 14.8156 187.306 14.8156C188.45 14.8156 189.354 15.1078 189.965 15.7187C190.577 16.3031 190.896 17.0203 190.923 17.8703C190.923 18.7203 190.577 19.5438 189.832 20.4204L181.297 29.9565V26.7689L190.79 37.7129C191.508 38.5629 191.8 39.4129 191.72 40.2895C191.614 41.1395 191.242 41.8302 190.577 42.388C189.912 42.9193 189.061 43.1849 187.998 43.1849C186.721 43.1849 185.711 42.9458 184.966 42.4677C184.195 41.9896 183.424 41.2458 182.653 40.2364L174.224 30.8596H174.117V38.8817C174.117 41.7505 172.708 43.1849 169.916 43.1849L169.889 43.1318Z" fill="#1D1D1B"/>
<path d="M55.4142 59.07C55.2015 58.8309 54.9887 58.5919 54.8026 58.3262L54.6165 58.0872C53.5262 56.7856 53.8187 55.0324 53.8985 54.6871C54.0049 53.9964 54.2974 53.4386 54.6696 53.0402C55.2015 52.4558 55.8928 52.1105 56.5576 52.1105C56.664 52.1105 56.7969 52.1105 56.9033 52.137C57.5414 52.2433 58.0467 52.562 58.3923 53.0933C59.0039 53.9699 59.0039 54.8199 58.8976 55.3777C58.738 56.3871 57.9935 57.4231 57.0362 58.034L55.4142 59.07ZM71.475 55.723C71.7143 54.5011 71.8207 53.1996 71.8207 51.8183C71.8207 51.8183 71.7143 41.6446 71.6611 38.2977C71.6611 37.9258 71.6611 37.6071 71.6611 37.368V7.8299C71.6611 7.37833 71.7409 7.16582 71.7675 7.1127C71.8473 7.1127 72.0334 7.08613 72.3791 7.05957V40.7415C72.5121 45.1775 72.645 51.4464 72.645 51.7386C72.645 53.0933 72.2196 54.448 71.475 55.6699V55.723ZM92.8806 37.6071C94.1569 36.4648 95.5928 34.3929 95.5928 31.0194C95.5928 29.6381 95.3535 28.4694 94.9813 27.4865C95.0078 27.5397 95.061 27.5662 95.0876 27.6194C95.9651 28.5756 96.3906 29.8507 96.3906 31.5241C96.3906 33.8617 95.6726 35.5351 94.1569 36.8102C93.7847 37.1024 93.3592 37.368 92.9072 37.6071H92.8806ZM94.2633 17.0207C94.4494 16.3035 94.5558 15.5066 94.5558 14.5769C94.5558 11.0706 92.9338 9.0518 91.551 7.98928C91.551 7.98928 91.6042 7.98928 91.6308 8.01584C92.9072 8.5471 93.8644 9.2643 94.4494 10.1409C95.061 11.0706 95.3535 12.1331 95.3535 13.5144C95.3535 14.8957 95.0078 16.0644 94.2899 17.0207H94.2633Z" fill="#1D1D1B"/>
<path d="M85.9403 3.31396H72.4056C70.9697 3.31396 69.8529 3.68585 69.0552 4.48274C68.2575 5.27963 67.8852 6.36871 67.8852 7.82968V37.3146C67.8852 37.4475 67.9118 37.7928 67.9118 38.324C67.965 41.671 68.0713 51.7649 68.0713 51.7915C68.0713 56.9979 66.1036 61.4339 61.4768 61.4339C61.1843 61.4339 60.8918 61.4339 60.5993 61.4339C60.0941 61.4339 59.5889 61.4073 59.057 61.2214C60.8652 60.0792 62.2745 58.1135 62.6202 56.0416C62.9393 54.2353 62.567 52.4556 61.53 50.9946C60.5993 49.6133 59.19 48.7102 57.5946 48.4446C57.2489 48.3914 56.9032 48.3649 56.5841 48.3649C54.8823 48.3649 53.1805 49.1352 51.9041 50.4899C51.0266 51.4462 50.4416 52.6681 50.2289 53.9431C49.9896 55.1119 49.7237 58.0869 51.7446 60.5042C53.9782 63.6386 57.7541 65.5777 61.6098 65.5777C68.3638 65.5777 76.4208 59.0963 76.4208 51.7118C76.4208 51.6321 76.2879 45.1773 76.1549 40.7678V9.71566H84.4246C86.5785 9.71566 88.1739 10.1407 89.211 10.9376C90.2746 11.761 90.7798 12.9829 90.7798 14.5767C90.7798 16.1705 90.2746 17.4455 89.211 18.2424C88.3335 18.933 87.2167 19.358 85.3287 19.4377C82.0847 19.5705 80.8881 20.8987 80.8881 22.6519C80.8881 24.405 82.5633 25.8925 85.3021 25.8925C85.3021 25.8925 85.3553 25.8925 85.3819 25.8925C85.4351 25.8925 85.5149 25.8925 85.568 25.8925C87.8283 25.8925 89.2642 26.3441 90.2746 27.1676C91.3117 28.0441 91.8435 29.3192 91.8435 31.0192C91.8435 32.7192 91.3117 34.0208 90.2746 34.8974C89.2376 35.774 87.5889 36.2256 85.3819 36.2256H79.7978V42.6273H86.5519C90.7798 42.6273 94.1303 41.6444 96.55 39.7053C98.9432 37.7397 100.166 35.0302 100.166 31.5239C100.166 28.8942 99.4218 26.7426 97.9062 25.0956C96.7096 23.7675 95.1407 22.8378 93.173 22.28C94.7685 21.6425 96.0714 20.7128 97.1084 19.4909C98.438 17.8439 99.1028 15.8517 99.1028 13.5142C99.1028 11.3891 98.5975 9.58284 97.5605 8.04218C96.55 6.52809 95.0344 5.35932 93.0666 4.53586C91.0989 3.71241 88.7058 3.31396 85.9403 3.31396Z" fill="#1D1D1B"/>
<path d="M22.4958 10.22C30.7389 10.22 37.4664 16.9139 37.4664 25.175C37.4664 33.4361 30.7655 40.1299 22.4958 40.1299C14.2261 40.1299 7.52519 33.4361 7.52519 25.175C7.52519 16.9139 14.2261 10.22 22.4958 10.22ZM22.4958 2.70264C10.0779 2.70264 0 12.77 0 25.175C0 37.5799 10.0779 47.6473 22.4958 47.6473C34.9137 47.6473 44.9916 37.5799 44.9916 25.175C44.9916 12.77 34.9137 2.70264 22.4958 2.70264Z" fill="#1D1D1B"/>
</mask>
<g mask="url(#mask0_498_6312)">
<rect y="-24.0942" width="401.819" height="94.8946" fill="url(#paint0_linear_498_6312)"/>
</g>
<defs>
<linearGradient id="paint0_linear_498_6312" x1="0" y1="23.353" x2="401.819" y2="23.353" gradientUnits="userSpaceOnUse">
<stop stop-color="#2EE6B2"/>
<stop offset="1" stop-color="#2E68E6"/>
</linearGradient>
</defs>
</svg>
