<svg width="662" height="672" viewBox="0 0 662 672" fill="none" xmlns="http://www.w3.org/2000/svg">
<path d="M452.569 201.007L444.334 342.571L498.622 309.551L499.74 312.949C511.24 346.6 513.479 382.724 506.222 417.538C498.965 452.351 482.48 484.572 458.492 510.825C434.505 537.079 403.899 556.398 369.88 566.76C335.862 577.121 299.683 578.144 265.133 569.72C257.519 567.857 250.035 565.502 242.726 562.669L232.43 558.686L214.002 600.678L225.481 604.89C234.948 608.389 244.604 611.351 254.405 613.764C297.896 624.638 343.544 623.302 386.324 609.902C429.105 596.502 467.358 571.557 496.873 537.814C526.388 504.071 546.021 462.839 553.609 418.656C561.197 374.473 556.447 329.052 539.882 287.395L539.006 285.177L589.639 254.569L452.569 201.007Z" fill="#ECECEC" fill-opacity="0.5"/>
<path d="M84.8113 470.939L33.9707 501.673L170.763 555.167L179.276 413.671L125.266 446.523L123.924 443.07C112.358 409.341 110.07 373.123 117.301 338.207C124.531 303.291 141.014 270.96 165.024 244.598C189.034 218.237 219.688 198.813 253.779 188.361C287.869 177.909 324.143 176.812 358.803 185.186C366.416 187.049 373.901 189.404 381.21 192.237L391.395 196.192L410.071 153.907L399.369 149.413C389.766 145.539 379.876 142.42 369.789 140.084C306.662 124.785 240.045 135.149 184.55 168.904C129.055 202.658 89.214 257.046 73.7675 320.137C61.3732 369.486 64.9131 421.492 83.8804 468.707L84.8113 470.939Z" fill="#ECECEC" fill-opacity="0.5"/>
<g filter="url(#filter0_d_737_1857)">
<path d="M206.376 144.259H17C9.8203 144.259 4 150.079 4 157.259V346.635C4 353.814 9.8203 359.635 17 359.635H206.376C213.556 359.635 219.376 353.814 219.376 346.635V157.259C219.376 150.079 213.556 144.259 206.376 144.259Z" fill="#3F4142"/>
</g>
<path d="M111.946 164.819C65.0543 164.819 27.0391 202.792 27.0391 249.633C27.0391 296.476 65.0543 334.447 111.946 334.447C158.843 334.447 196.854 296.476 196.854 249.633C196.854 202.795 158.843 164.823 111.945 164.823L111.946 164.819ZM150.884 287.146C149.363 289.637 146.098 290.427 143.604 288.898C123.669 276.734 98.5728 273.979 69.0176 280.724C66.1696 281.373 63.3306 279.59 62.6818 276.744C62.0298 273.898 63.8072 271.062 66.6623 270.414C99.0058 263.033 126.749 266.211 149.13 279.874C151.624 281.403 152.415 284.654 150.884 287.146ZM161.277 264.052C159.36 267.163 155.284 268.145 152.172 266.231C129.349 252.218 94.5588 248.16 67.5637 256.345C64.0627 257.401 60.365 255.431 59.3024 251.939C58.248 248.442 60.222 244.756 63.7169 243.692C94.5527 234.346 132.887 238.873 159.097 254.962C162.209 256.876 163.193 260.946 161.277 264.052ZM162.169 240.003C134.804 223.767 89.6546 222.274 63.5273 230.195C59.3318 231.467 54.895 229.101 53.6236 224.91C52.3521 220.717 54.7186 216.288 58.9171 215.013C88.9093 205.919 138.768 207.676 170.274 226.359C174.056 228.596 175.293 233.465 173.052 237.229C170.821 240.999 165.934 242.242 162.173 240.003H162.169Z" fill="white"/>
<g filter="url(#filter1_d_737_1857)">
<path d="M602.472 382.117H413.096C405.916 382.117 400.096 387.937 400.096 395.117V584.493C400.096 591.673 405.916 597.493 413.096 597.493H602.472C609.651 597.493 615.472 591.673 615.472 584.493V395.117C615.472 387.937 609.651 382.117 602.472 382.117Z" fill="#3F4142"/>
</g>
<path d="M540.161 457.818C540.161 458.629 540.095 459.44 539.942 460.251C539.218 464.458 536.566 468.118 532.512 470.528C528.588 473.508 523.832 475.656 517.104 476.817C515.657 477.058 514.539 477.19 513.224 477.431C512.895 477.497 512.61 477.299 512.545 476.971C512.282 475.766 511.712 473.333 511.493 472.303C511.427 471.953 511.624 471.646 511.975 471.602C516.906 470.813 521.027 469.213 525.301 467.548C527.471 466.693 529.355 465.159 530.123 463.625C532.051 459.747 530.407 455.868 529.268 454.356C527.755 452.34 526.068 451.091 522.232 450.959C520.72 450.894 519.032 451.222 517.213 451.858C516.862 451.989 515.723 452.669 514.955 453.107C514.539 453.37 514.144 453.589 513.86 453.742L513.662 453.962H513.355C512.216 454.29 510.484 453.764 510.09 452.471C509.542 450.718 510.331 449.776 511.076 449.294C511.208 449.228 512.895 448.461 514.079 447.826C515.197 447.256 515.964 446.62 516.643 445.7C519.492 441.8 518.966 437.899 517.169 435.773C515.503 433.801 512.26 433.1 508.512 433.933C506.846 434.327 502.419 436.409 500.337 438.184C499.964 438.491 499.876 438.885 499.898 439.367C500.139 445.525 506.714 478.899 507.635 483.632C507.679 483.852 507.613 484.049 507.438 484.202C506.802 484.75 505.115 486.174 503.931 487.161C503.58 487.467 503.032 487.27 502.945 486.81C501.564 479.754 495.01 437.987 494.967 437.526C494.923 437.176 495.076 436.737 495.273 436.387C495.58 435.861 499.613 431.917 503.23 430.12C506.802 428.367 510.156 427.578 514.123 427.578C516.928 427.578 520.895 428.958 522.67 431.259C525.586 434.984 525.739 439.126 523.087 444.539C524.731 444.363 526.703 444.232 527.471 444.232C530.956 444.232 534.528 445.941 536.808 448.68C538.999 451.288 540.161 454.509 540.161 457.818Z" fill="url(#paint0_linear_737_1857)"/>
<path d="M509.78 501.842C508.662 502.872 506.953 504.45 506.295 505.063C506.142 505.195 506.076 505.392 506.098 505.611C506.646 509.49 506.668 508.986 507.084 512.755C507.128 513.084 507.413 513.347 507.742 513.303C508.925 513.193 510.963 512.909 511.972 512.777C512.322 512.733 512.542 512.426 512.498 512.076C511.95 507.89 511.775 508.109 510.788 502.237C510.701 501.755 510.131 501.535 509.758 501.864L509.78 501.842ZM514.251 533.661C514.207 532.696 514.164 531.469 514.054 529.87C514.032 529.497 513.681 529.212 513.331 529.278C512.191 529.475 510.701 529.694 509.408 529.848C509.079 529.892 508.86 530.198 508.86 530.505C508.925 531.82 508.969 532.828 508.991 533.704V533.967C509.035 534.274 509.013 535.458 509.013 535.479C509.013 542.514 503.95 548.233 497.725 548.233C496.564 548.233 495.402 548.014 494.284 547.62C496.739 546.086 498.624 543.434 499.106 540.651C499.544 538.219 499.019 535.786 497.638 533.814C496.366 531.973 494.481 530.746 492.334 530.374C489.55 529.891 486.679 530.921 484.662 533.157C483.479 534.449 482.69 536.071 482.383 537.802C482.076 539.38 481.703 543.39 484.421 546.677C487.446 550.885 492.553 553.514 497.725 553.514C506.865 553.514 514.295 545.428 514.295 535.479C514.295 535.326 514.273 534.296 514.251 533.661ZM531.413 499.41C531.347 498.292 530.799 497.218 529.725 496.057C529.55 495.86 529.374 495.728 527.424 494.457C524.706 492.638 519.599 489.264 516.07 486.415C515.018 485.538 513.462 485.56 512.432 486.459C511.818 486.985 510.898 487.708 509.999 488.431C509.802 488.606 508.947 489.264 508.794 489.395C506.602 491.258 500.092 496.342 500.092 496.342C498.449 497.701 498.449 499.519 499.282 500.615C499.829 501.316 500.465 501.711 501.188 501.798C501.955 501.886 502.766 501.579 503.577 500.922C503.643 500.856 513.068 492.638 513.331 492.441C513.988 491.937 515.04 491.696 515.917 492.244C517.079 493.011 523.457 497.459 524.947 498.708C525.605 499.256 525.912 500.221 525.89 501.185C525.758 509.03 518.372 516.327 512.892 517.773C504.279 520.03 498.295 516.612 496.366 515.385C490.164 511.418 484.882 501.93 486.306 493.953C487.643 486.371 489.857 484.048 496.673 481.222C496.936 481.112 497.09 480.827 497.046 480.542C496.805 479.359 496.235 476.861 495.775 475.02C495.687 474.669 495.336 474.472 494.985 474.56C483.435 477.65 477.934 484.662 477.013 495.772C476.312 504.34 480.958 514.004 488.323 519.263C493.693 523.098 499.829 526.604 512.41 524.479C522.996 522.704 530.492 513.851 531.347 503.53C531.435 502.543 531.522 501.053 531.435 499.41H531.413Z" fill="url(#paint1_linear_737_1857)"/>
<path d="M507.787 411.694C550.859 411.694 585.895 446.724 585.895 489.789C585.895 532.853 550.859 567.883 507.787 567.883C464.714 567.883 429.678 532.853 429.678 489.789C429.678 446.724 464.714 411.694 507.787 411.694ZM507.787 404.897C460.891 404.897 422.879 442.902 422.879 489.789C422.879 536.676 460.891 574.68 507.787 574.68C554.682 574.68 592.694 536.676 592.694 489.789C592.694 442.902 554.682 404.897 507.787 404.897Z" fill="url(#paint2_linear_737_1857)"/>
<g filter="url(#filter2_d_737_1857)">
<path d="M169.305 395.134L169.267 394.955C169.265 394.945 169.263 394.935 169.261 394.925C169.261 394.925 165.456 376.687 165.411 376.468C165.365 376.25 165.168 376.346 165.168 376.346L150.048 382.89C150.048 382.89 149.833 382.973 149.882 383.205C149.93 383.438 152.905 397.678 152.905 397.678C152.905 397.68 152.904 397.682 152.905 397.684C152.938 397.843 152.883 397.933 152.578 397.95L152.579 397.954C151.478 397.992 150.277 398.398 149.205 399.184C146.931 400.853 146.1 403.579 147.349 405.274C148.599 406.969 151.455 406.989 153.729 405.322C155.501 404.021 156.391 402.081 156.109 400.484L156.114 400.483L156.076 400.305C156.074 400.294 156.073 400.285 156.07 400.274C156.07 400.274 153.316 387.067 153.282 386.904C153.247 386.739 153.383 386.668 153.383 386.668L163.802 382.185C163.802 382.185 163.96 382.09 164.003 382.296C164.046 382.502 166.117 392.434 166.117 392.434C166.117 392.437 166.115 392.44 166.115 392.444C166.137 392.546 166.062 392.597 165.933 392.602L165.939 392.609C164.792 392.607 163.524 393.01 162.395 393.837C160.121 395.506 159.29 398.232 160.539 399.927C161.788 401.621 164.645 401.642 166.919 399.973C168.691 398.674 169.581 396.733 169.299 395.137L169.305 395.136V395.134Z" fill="#2165F8"/>
</g>
<g filter="url(#filter3_d_737_1857)">
<path d="M206.674 493.427L206.764 493.093C206.769 493.073 206.775 493.055 206.78 493.036C206.78 493.036 215.964 458.951 216.074 458.543C216.184 458.135 215.76 458.125 215.76 458.125L183.876 456.045C183.876 456.045 183.433 455.998 183.315 456.433C183.198 456.868 176.034 483.484 176.034 483.484C176.033 483.488 176.029 483.49 176.028 483.493C175.948 483.792 175.774 483.895 175.23 483.66L175.229 483.667C173.287 482.775 170.854 482.418 168.315 482.815C162.926 483.657 159.127 487.537 159.825 491.482C160.526 495.427 165.461 497.94 170.848 497.1C175.047 496.443 178.269 493.941 179.161 491.002L179.17 491.004L179.261 490.67C179.265 490.651 179.271 490.633 179.276 490.613C179.276 490.613 185.929 465.932 186.011 465.626C186.094 465.319 186.39 465.317 186.39 465.317L208.338 466.794C208.338 466.794 208.694 466.772 208.59 467.156C208.486 467.541 203.483 486.102 203.483 486.102C203.481 486.108 203.474 486.11 203.472 486.117C203.421 486.308 203.246 486.329 203.019 486.227C203.019 486.227 203.023 486.241 203.024 486.244C201.037 485.244 198.489 484.823 195.815 485.24C190.428 486.082 186.627 489.962 187.327 493.906C188.026 497.851 192.962 500.365 198.35 499.523C202.546 498.868 205.77 496.365 206.663 493.426L206.674 493.429V493.427Z" fill="url(#paint3_linear_737_1857)"/>
</g>
<g filter="url(#filter4_d_737_1857)">
<path d="M511.75 213.377V213.108C511.749 213.093 511.75 213.078 511.75 213.063C511.75 213.063 511.747 185.607 511.747 185.278C511.747 184.949 511.423 185.028 511.423 185.028L486.741 189.92C486.741 189.92 486.394 189.975 486.394 190.325C486.394 190.675 486.402 212.113 486.402 212.113C486.402 212.116 486.4 212.118 486.4 212.121C486.4 212.362 486.289 212.474 485.827 212.408V212.414C484.167 212.137 482.243 212.361 480.393 213.173C476.466 214.896 474.371 218.579 475.712 221.4C477.053 224.221 481.323 225.11 485.249 223.389C488.308 222.045 490.247 219.513 490.322 217.126H490.33V216.857C490.329 216.841 490.331 216.827 490.33 216.811C490.33 216.811 490.33 196.929 490.33 196.683C490.33 196.436 490.555 196.374 490.555 196.374L507.554 193.04C507.554 193.04 507.82 192.951 507.82 193.261C507.82 193.571 507.82 208.523 507.82 208.523C507.819 208.528 507.815 208.531 507.815 208.536C507.815 208.69 507.686 208.741 507.493 208.711C507.493 208.711 507.498 208.72 507.5 208.722C505.783 208.374 503.758 208.574 501.81 209.428C497.884 211.151 495.789 214.833 497.13 217.654C498.471 220.475 502.741 221.364 506.667 219.641C509.725 218.3 511.664 215.767 511.741 213.38H511.75V213.377Z" fill="url(#paint4_linear_737_1857)"/>
</g>
<g filter="url(#filter5_d_737_1857)">
<path d="M184.075 120.099C184.076 120.102 184.073 120.104 184.075 120.109C184.147 120.331 184.083 120.467 183.654 120.538L183.657 120.545C182.1 120.769 180.461 121.535 179.065 122.819C176.102 125.548 175.354 129.555 177.393 131.772C179.433 133.989 183.488 133.575 186.451 130.849C188.759 128.722 189.715 125.823 189.064 123.595L189.07 123.593L188.994 123.359C188.987 123.339 188.981 123.319 188.974 123.298C188.974 123.298 181.429 100.177 181.324 99.8529C181.218 99.5296 181.094 99.5559 180.914 99.658C180.188 100.067 178.352 101.1 178.241 101.173C178.102 101.263 177.955 101.342 178.055 101.647C178.153 101.95 184.075 120.099 184.075 120.099Z" fill="url(#paint5_linear_737_1857)"/>
</g>
<g filter="url(#filter6_d_737_1857)">
<path d="M65.6313 388.24C65.6303 388.242 65.6273 388.242 65.6257 388.246C65.5487 388.412 65.4375 388.455 65.1473 388.264L65.1453 388.269C64.1094 387.556 62.7339 387.107 61.2221 387.086C58.0124 387.043 55.4159 388.925 55.4219 391.291C55.4277 393.658 58.0343 395.612 61.2432 395.657C63.7439 395.691 65.8666 394.553 66.6822 392.93L66.6874 392.933L66.7685 392.757C66.775 392.742 66.7823 392.728 66.7895 392.712C66.7895 392.712 74.7964 375.444 74.9086 375.202C75.0205 374.961 74.9335 374.909 74.7725 374.87C74.1256 374.711 72.4908 374.309 72.3864 374.29C72.2563 374.266 72.1273 374.232 72.0216 374.46C71.9162 374.686 65.6313 388.24 65.6313 388.24Z" fill="url(#paint6_linear_737_1857)"/>
</g>
<g filter="url(#filter7_d_737_1857)">
<path d="M534.719 145.177C534.719 145.18 534.715 145.181 534.715 145.186C534.715 145.42 534.612 145.53 534.182 145.464L534.183 145.472C532.633 145.201 530.837 145.421 529.112 146.209C525.449 147.884 523.494 151.461 524.745 154.201C525.996 156.942 529.98 157.806 533.643 156.133C536.496 154.828 538.305 152.368 538.377 150.048H538.384V149.802C538.383 149.781 538.384 149.76 538.384 149.738C538.384 149.738 538.384 125.417 538.384 125.076C538.384 124.736 538.258 124.723 538.055 124.764C537.237 124.928 535.172 125.34 535.044 125.375C534.884 125.417 534.72 125.447 534.72 125.768C534.719 126.086 534.719 145.177 534.719 145.177Z" fill="#2165F8"/>
</g>
<path d="M325.572 213.761C325.572 213.761 325.57 213.763 325.57 213.767C325.57 213.919 325.498 213.991 325.197 213.948V213.953C324.112 213.776 322.855 213.92 321.647 214.434C319.084 215.526 317.715 217.859 318.591 219.646C319.467 221.433 322.255 221.997 324.819 220.906C326.816 220.055 328.083 218.451 328.133 216.938H328.138V216.777C328.137 216.763 328.138 216.75 328.138 216.735C328.138 216.735 328.138 200.874 328.138 200.651C328.138 200.43 328.05 200.421 327.907 200.448C327.335 200.554 325.89 200.823 325.8 200.846C325.688 200.874 325.573 200.893 325.573 201.102C325.572 201.31 325.572 213.761 325.572 213.761Z" fill="#2165F8"/>
<path d="M486.525 49.0576C485.754 49.0576 485.123 49.5729 485.123 50.2028V52.5847C485.123 53.2145 485.754 53.7298 486.525 53.7298C487.296 53.7298 487.926 53.2145 487.926 52.5847V50.2028C487.926 49.5729 487.296 49.0576 486.525 49.0576Z" fill="#CACACA"/>
<path d="M486.525 57.4673C485.754 57.4673 485.123 58.0857 485.123 58.8415V61.6997C485.123 62.4555 485.754 63.0739 486.525 63.0739C487.296 63.0739 487.926 62.4555 487.926 61.6997V58.8415C487.926 58.0857 487.296 57.4673 486.525 57.4673Z" fill="#CACACA"/>
<path d="M492.158 54.665H489.3C488.544 54.665 487.926 55.2958 487.926 56.0667C487.926 56.8376 488.544 57.4684 489.3 57.4684H492.158C492.914 57.4684 493.532 56.8376 493.532 56.0667C493.532 55.2958 492.914 54.665 492.158 54.665Z" fill="#CACACA"/>
<path d="M483.043 54.665H480.661C480.031 54.665 479.516 55.2958 479.516 56.0667C479.516 56.8376 480.031 57.4684 480.661 57.4684H483.043C483.673 57.4684 484.188 56.8376 484.188 56.0667C484.188 55.2958 483.673 54.665 483.043 54.665Z" fill="#CACACA"/>
<path d="M148.72 622.336C147.949 622.336 147.318 622.852 147.318 623.482V625.863C147.318 626.493 147.949 627.009 148.72 627.009C149.491 627.009 150.122 626.493 150.122 625.863V623.482C150.122 622.852 149.491 622.336 148.72 622.336Z" fill="#CACACA"/>
<path d="M148.72 630.746C147.949 630.746 147.318 631.364 147.318 632.12V634.979C147.318 635.734 147.949 636.353 148.72 636.353C149.491 636.353 150.122 635.734 150.122 634.979V632.12C150.122 631.364 149.491 630.746 148.72 630.746Z" fill="#CACACA"/>
<path d="M154.354 627.943H151.495C150.739 627.943 150.121 628.574 150.121 629.345C150.121 630.116 150.739 630.747 151.495 630.747H154.354C155.109 630.747 155.728 630.116 155.728 629.345C155.728 628.574 155.109 627.943 154.354 627.943Z" fill="#CACACA"/>
<path d="M145.238 627.943H142.856C142.226 627.943 141.711 628.574 141.711 629.345C141.711 630.116 142.226 630.747 142.856 630.747H145.238C145.868 630.747 146.383 630.116 146.383 629.345C146.383 628.574 145.868 627.943 145.238 627.943Z" fill="#CACACA"/>
<path d="M365.983 402.277C365.058 402.277 364.301 402.895 364.301 403.651V406.509C364.301 407.265 365.058 407.883 365.983 407.883C366.908 407.883 367.665 407.265 367.665 406.509V403.651C367.665 402.895 366.908 402.277 365.983 402.277Z" fill="white" fill-opacity="0.5"/>
<path d="M365.983 412.37C365.058 412.37 364.301 413.112 364.301 414.019V417.449C364.301 418.356 365.058 419.098 365.983 419.098C366.908 419.098 367.665 418.356 367.665 417.449V414.019C367.665 413.112 366.908 412.37 365.983 412.37Z" fill="white" fill-opacity="0.5"/>
<path d="M372.743 409.005H369.313C368.406 409.005 367.664 409.762 367.664 410.687C367.664 411.612 368.406 412.369 369.313 412.369H372.743C373.65 412.369 374.392 411.612 374.392 410.687C374.392 409.762 373.65 409.005 372.743 409.005Z" fill="white" fill-opacity="0.5"/>
<path d="M361.805 409.005H358.946C358.191 409.005 357.572 409.762 357.572 410.687C357.572 411.612 358.191 412.369 358.946 412.369H361.805C362.561 412.369 363.179 411.612 363.179 410.687C363.179 409.762 362.561 409.005 361.805 409.005Z" fill="white" fill-opacity="0.5"/>
<path d="M86.3505 91.1079C85.1942 91.1079 84.248 91.8809 84.248 92.8256V96.3985C84.248 97.3432 85.1942 98.1162 86.3505 98.1162C87.5069 98.1162 88.453 97.3432 88.453 96.3985V92.8256C88.453 91.8809 87.5069 91.1079 86.3505 91.1079Z" fill="#CACACA"/>
<path d="M86.3505 103.722C85.1942 103.722 84.248 104.65 84.248 105.783V110.071C84.248 111.205 85.1942 112.132 86.3505 112.132C87.5069 112.132 88.453 111.205 88.453 110.071V105.783C88.453 104.65 87.5069 103.722 86.3505 103.722Z" fill="#CACACA"/>
<path d="M94.7999 99.5176H90.5124C89.3787 99.5176 88.4512 100.464 88.4512 101.62C88.4512 102.776 89.3787 103.723 90.5124 103.723H94.7999C95.9336 103.723 96.8611 102.776 96.8611 101.62C96.8611 100.464 95.9336 99.5176 94.7999 99.5176Z" fill="#CACACA"/>
<path d="M81.1285 99.5176H77.5556C76.6109 99.5176 75.8379 100.464 75.8379 101.62C75.8379 102.776 76.6109 103.723 77.5556 103.723H81.1285C82.0732 103.723 82.8462 102.776 82.8462 101.62C82.8462 100.464 82.0732 99.5176 81.1285 99.5176Z" fill="#CACACA"/>
<path d="M180.966 25.2305C180.503 25.2305 180.125 25.5397 180.125 25.9176V27.3467C180.125 27.7246 180.503 28.0338 180.966 28.0338C181.429 28.0338 181.807 27.7246 181.807 27.3467V25.9176C181.807 25.5397 181.429 25.2305 180.966 25.2305Z" fill="#CACACA"/>
<path d="M180.966 30.2769C180.503 30.2769 180.125 30.6479 180.125 31.1014V32.8163C180.125 33.2698 180.503 33.6408 180.966 33.6408C181.429 33.6408 181.807 33.2698 181.807 32.8163V31.1014C181.807 30.6479 181.429 30.2769 180.966 30.2769Z" fill="#CACACA"/>
<path d="M184.34 28.5938H182.625C182.172 28.5938 181.801 28.9722 181.801 29.4347C181.801 29.8973 182.172 30.2757 182.625 30.2757H184.34C184.794 30.2757 185.165 29.8973 185.165 29.4347C185.165 28.9722 184.794 28.5938 184.34 28.5938Z" fill="#CACACA"/>
<path d="M178.874 28.5938H177.445C177.067 28.5938 176.758 28.9722 176.758 29.4347C176.758 29.8973 177.067 30.2757 177.445 30.2757H178.874C179.252 30.2757 179.561 29.8973 179.561 29.4347C179.561 28.9722 179.252 28.5938 178.874 28.5938Z" fill="#CACACA"/>
<g filter="url(#filter8_d_737_1857)">
<path d="M288.42 531.848L289.92 530.982C284.37 529.346 279.2 528.684 274.416 528.994C269.352 529.323 264.706 530.747 260.482 533.264L262.429 536.637L288.42 531.848ZM314.197 574.566L320.069 571.176L296.287 529.984L290.415 533.374L314.197 574.566ZM321.229 573.184L315.357 576.574L317.291 579.924L323.163 576.534L321.229 573.184ZM294.465 528.358L295.963 527.493L313.105 507.379L311.157 504.006C306.866 506.405 303.311 509.717 300.494 513.938C297.834 517.926 295.823 522.733 294.465 528.358ZM315.042 580.668C306.107 565.191 297.171 549.714 288.236 534.237L259.045 539.616L285.852 586.046L315.042 580.668ZM298.124 528.528L324.931 574.959L344.183 552.368L317.377 505.938L298.124 528.528Z" fill="#2165F8"/>
</g>
<path d="M593.808 322.853L594.759 323.461C594.042 319.757 592.874 316.566 591.26 313.89C589.551 311.057 587.333 308.795 584.61 307.104L583.241 309.243L593.808 322.853ZM576.81 350.585L580.534 352.967L597.246 326.847L593.523 324.465L576.81 350.585ZM579.719 354.241L575.996 351.858L574.636 353.983L578.359 356.365L579.719 354.241ZM597.641 325.305L598.59 325.913L615.375 329.804L616.743 327.665C614.068 325.9 611.084 324.835 607.796 324.47C604.69 324.127 601.304 324.404 597.641 325.305ZM573.532 352.904C579.811 343.09 586.09 333.276 592.369 323.462L580.502 308.178L561.664 337.619L573.532 352.904ZM598.64 327.474L579.802 356.916L598.652 361.285L617.49 331.844L598.64 327.474Z" fill="#2EE6B2"/>
<path d="M641.963 629.48C638.844 626.366 635.718 612.519 635.687 612.379L635.092 609.722L634.498 612.379C634.466 612.519 631.342 626.363 628.222 629.48C625.105 632.601 611.257 635.727 611.118 635.758L608.461 636.353L611.118 636.948C611.257 636.979 625.105 640.105 628.222 643.222C631.34 646.341 634.466 660.189 634.498 660.327L635.092 662.985L635.687 660.327C635.718 660.189 638.844 646.341 641.963 643.222C645.079 640.105 658.927 636.979 659.067 636.948L661.724 636.353L659.068 635.758C658.927 635.727 645.081 632.601 641.963 629.48Z" fill="url(#paint7_linear_737_1857)"/>
<path d="M385.055 90.2482C382.756 87.9535 380.453 77.751 380.43 77.6476L379.992 75.6895L379.555 77.6476C379.531 77.751 377.229 87.9518 374.93 90.2482C372.633 92.5482 362.43 94.8516 362.327 94.8744L360.369 95.3127L362.327 95.7509C362.43 95.7737 372.633 98.0772 374.93 100.374C377.227 102.672 379.531 112.876 379.555 112.978L379.992 114.936L380.43 112.978C380.453 112.876 382.756 102.672 385.055 100.374C387.351 98.0772 397.555 95.7737 397.658 95.7509L399.616 95.3127L397.658 94.8744C397.555 94.8516 387.353 92.5482 385.055 90.2482Z" fill="url(#paint8_linear_737_1857)"/>
<path d="M59.521 573.133C59.8484 573.462 60.3636 575.059 60.6535 576.353L61.3004 579.237L61.9475 576.353C62.2374 575.059 62.7524 573.462 63.0812 573.133C63.4099 572.805 65.0069 572.287 66.3011 572L69.1894 571.35L66.2997 570.706C65.0068 570.416 63.4073 569.901 63.0812 569.577C62.7524 569.246 62.2374 567.646 61.9475 566.352L61.3004 563.466L60.6535 566.352C60.3636 567.646 59.8485 569.246 59.5224 569.575C59.1937 569.901 57.5941 570.416 56.2999 570.706L53.4062 571.353L56.2999 572C57.5941 572.287 59.191 572.805 59.521 573.133Z" fill="url(#paint9_linear_737_1857)"/>
<path d="M304.812 9.66714C305.139 9.99585 305.655 11.5928 305.944 12.8869L306.591 15.7703L307.239 12.8869C307.528 11.5928 308.043 9.99585 308.372 9.66714C308.701 9.33843 310.298 8.82078 311.592 8.53349L314.48 7.88383L311.591 7.23936C310.298 6.94947 308.698 6.43441 308.372 6.11088C308.043 5.77958 307.528 4.18004 307.239 2.88591L306.591 0L305.944 2.88591C305.655 4.18004 305.139 5.77958 304.813 6.10829C304.485 6.43441 302.885 6.94947 301.591 7.23936L298.697 7.88642L301.591 8.53349C302.885 8.82078 304.482 9.33843 304.812 9.66714Z" fill="url(#paint10_linear_737_1857)"/>
<defs>
<filter id="filter0_d_737_1857" x="0" y="144.259" width="223.377" height="223.376" filterUnits="userSpaceOnUse" color-interpolation-filters="sRGB">
<feFlood flood-opacity="0" result="BackgroundImageFix"/>
<feColorMatrix in="SourceAlpha" type="matrix" values="0 0 0 0 0 0 0 0 0 0 0 0 0 0 0 0 0 0 127 0" result="hardAlpha"/>
<feOffset dy="4"/>
<feGaussianBlur stdDeviation="2"/>
<feComposite in2="hardAlpha" operator="out"/>
<feColorMatrix type="matrix" values="0 0 0 0 0 0 0 0 0 0 0 0 0 0 0 0 0 0 0.25 0"/>
<feBlend mode="normal" in2="BackgroundImageFix" result="effect1_dropShadow_737_1857"/>
<feBlend mode="normal" in="SourceGraphic" in2="effect1_dropShadow_737_1857" result="shape"/>
</filter>
<filter id="filter1_d_737_1857" x="396.096" y="382.117" width="223.377" height="223.376" filterUnits="userSpaceOnUse" color-interpolation-filters="sRGB">
<feFlood flood-opacity="0" result="BackgroundImageFix"/>
<feColorMatrix in="SourceAlpha" type="matrix" values="0 0 0 0 0 0 0 0 0 0 0 0 0 0 0 0 0 0 127 0" result="hardAlpha"/>
<feOffset dy="4"/>
<feGaussianBlur stdDeviation="2"/>
<feComposite in2="hardAlpha" operator="out"/>
<feColorMatrix type="matrix" values="0 0 0 0 0 0 0 0 0 0 0 0 0 0 0 0 0 0 0.25 0"/>
<feBlend mode="normal" in2="BackgroundImageFix" result="effect1_dropShadow_737_1857"/>
<feBlend mode="normal" in="SourceGraphic" in2="effect1_dropShadow_737_1857" result="shape"/>
</filter>
<filter id="filter2_d_737_1857" x="142.768" y="376.325" width="30.582" height="38.2339" filterUnits="userSpaceOnUse" color-interpolation-filters="sRGB">
<feFlood flood-opacity="0" result="BackgroundImageFix"/>
<feColorMatrix in="SourceAlpha" type="matrix" values="0 0 0 0 0 0 0 0 0 0 0 0 0 0 0 0 0 0 127 0" result="hardAlpha"/>
<feOffset dy="4"/>
<feGaussianBlur stdDeviation="2"/>
<feComposite in2="hardAlpha" operator="out"/>
<feColorMatrix type="matrix" values="0 0 0 0 0 0 0 0 0 0 0 0 0 0 0 0 0 0 0.25 0"/>
<feBlend mode="normal" in2="BackgroundImageFix" result="effect1_dropShadow_737_1857"/>
<feBlend mode="normal" in="SourceGraphic" in2="effect1_dropShadow_737_1857" result="shape"/>
</filter>
<filter id="filter3_d_737_1857" x="155.742" y="456.043" width="64.3496" height="51.6421" filterUnits="userSpaceOnUse" color-interpolation-filters="sRGB">
<feFlood flood-opacity="0" result="BackgroundImageFix"/>
<feColorMatrix in="SourceAlpha" type="matrix" values="0 0 0 0 0 0 0 0 0 0 0 0 0 0 0 0 0 0 127 0" result="hardAlpha"/>
<feOffset dy="4"/>
<feGaussianBlur stdDeviation="2"/>
<feComposite in2="hardAlpha" operator="out"/>
<feColorMatrix type="matrix" values="0 0 0 0 0 0 0 0 0 0 0 0 0 0 0 0 0 0 0.25 0"/>
<feBlend mode="normal" in2="BackgroundImageFix" result="effect1_dropShadow_737_1857"/>
<feBlend mode="normal" in="SourceGraphic" in2="effect1_dropShadow_737_1857" result="shape"/>
</filter>
<filter id="filter4_d_737_1857" x="471.307" y="185.02" width="44.4434" height="47.2466" filterUnits="userSpaceOnUse" color-interpolation-filters="sRGB">
<feFlood flood-opacity="0" result="BackgroundImageFix"/>
<feColorMatrix in="SourceAlpha" type="matrix" values="0 0 0 0 0 0 0 0 0 0 0 0 0 0 0 0 0 0 127 0" result="hardAlpha"/>
<feOffset dy="4"/>
<feGaussianBlur stdDeviation="2"/>
<feComposite in2="hardAlpha" operator="out"/>
<feColorMatrix type="matrix" values="0 0 0 0 0 0 0 0 0 0 0 0 0 0 0 0 0 0 0.25 0"/>
<feBlend mode="normal" in2="BackgroundImageFix" result="effect1_dropShadow_737_1857"/>
<feBlend mode="normal" in="SourceGraphic" in2="effect1_dropShadow_737_1857" result="shape"/>
</filter>
<filter id="filter5_d_737_1857" x="172.244" y="99.5894" width="21.0195" height="41.6084" filterUnits="userSpaceOnUse" color-interpolation-filters="sRGB">
<feFlood flood-opacity="0" result="BackgroundImageFix"/>
<feColorMatrix in="SourceAlpha" type="matrix" values="0 0 0 0 0 0 0 0 0 0 0 0 0 0 0 0 0 0 127 0" result="hardAlpha"/>
<feOffset dy="4"/>
<feGaussianBlur stdDeviation="2"/>
<feComposite in2="hardAlpha" operator="out"/>
<feColorMatrix type="matrix" values="0 0 0 0 0 0 0 0 0 0 0 0 0 0 0 0 0 0 0.25 0"/>
<feBlend mode="normal" in2="BackgroundImageFix" result="effect1_dropShadow_737_1857"/>
<feBlend mode="normal" in="SourceGraphic" in2="effect1_dropShadow_737_1857" result="shape"/>
</filter>
<filter id="filter6_d_737_1857" x="51.4219" y="374.273" width="27.5371" height="29.3853" filterUnits="userSpaceOnUse" color-interpolation-filters="sRGB">
<feFlood flood-opacity="0" result="BackgroundImageFix"/>
<feColorMatrix in="SourceAlpha" type="matrix" values="0 0 0 0 0 0 0 0 0 0 0 0 0 0 0 0 0 0 127 0" result="hardAlpha"/>
<feOffset dy="4"/>
<feGaussianBlur stdDeviation="2"/>
<feComposite in2="hardAlpha" operator="out"/>
<feColorMatrix type="matrix" values="0 0 0 0 0 0 0 0 0 0 0 0 0 0 0 0 0 0 0.25 0"/>
<feBlend mode="normal" in2="BackgroundImageFix" result="effect1_dropShadow_737_1857"/>
<feBlend mode="normal" in="SourceGraphic" in2="effect1_dropShadow_737_1857" result="shape"/>
</filter>
<filter id="filter7_d_737_1857" x="520.367" y="124.748" width="22.0176" height="40.2383" filterUnits="userSpaceOnUse" color-interpolation-filters="sRGB">
<feFlood flood-opacity="0" result="BackgroundImageFix"/>
<feColorMatrix in="SourceAlpha" type="matrix" values="0 0 0 0 0 0 0 0 0 0 0 0 0 0 0 0 0 0 127 0" result="hardAlpha"/>
<feOffset dy="4"/>
<feGaussianBlur stdDeviation="2"/>
<feComposite in2="hardAlpha" operator="out"/>
<feColorMatrix type="matrix" values="0 0 0 0 0 0 0 0 0 0 0 0 0 0 0 0 0 0 0.25 0"/>
<feBlend mode="normal" in2="BackgroundImageFix" result="effect1_dropShadow_737_1857"/>
<feBlend mode="normal" in="SourceGraphic" in2="effect1_dropShadow_737_1857" result="shape"/>
</filter>
<filter id="filter8_d_737_1857" x="255.045" y="504.006" width="93.1387" height="90.04" filterUnits="userSpaceOnUse" color-interpolation-filters="sRGB">
<feFlood flood-opacity="0" result="BackgroundImageFix"/>
<feColorMatrix in="SourceAlpha" type="matrix" values="0 0 0 0 0 0 0 0 0 0 0 0 0 0 0 0 0 0 127 0" result="hardAlpha"/>
<feOffset dy="4"/>
<feGaussianBlur stdDeviation="2"/>
<feComposite in2="hardAlpha" operator="out"/>
<feColorMatrix type="matrix" values="0 0 0 0 0 0 0 0 0 0 0 0 0 0 0 0 0 0 0.25 0"/>
<feBlend mode="normal" in2="BackgroundImageFix" result="effect1_dropShadow_737_1857"/>
<feBlend mode="normal" in="SourceGraphic" in2="effect1_dropShadow_737_1857" result="shape"/>
</filter>
<linearGradient id="paint0_linear_737_1857" x1="517.564" y1="487.314" x2="517.564" y2="427.578" gradientUnits="userSpaceOnUse">
<stop stop-color="#2EE6B2"/>
<stop offset="0.02" stop-color="#2CDBB7"/>
<stop offset="0.08" stop-color="#29BBC9"/>
<stop offset="0.14" stop-color="#26A0D7"/>
<stop offset="0.22" stop-color="#248AE3"/>
<stop offset="0.31" stop-color="#2379EC"/>
<stop offset="0.42" stop-color="#216DF3"/>
<stop offset="0.57" stop-color="#2166F6"/>
<stop offset="1" stop-color="#2165F8"/>
</linearGradient>
<linearGradient id="paint1_linear_737_1857" x1="504.191" y1="553.514" x2="504.191" y2="474.538" gradientUnits="userSpaceOnUse">
<stop stop-color="#2EE6B2"/>
<stop offset="0.43" stop-color="#2DE4B3"/>
<stop offset="0.58" stop-color="#2DDDB6"/>
<stop offset="0.69" stop-color="#2BD1BD"/>
<stop offset="0.78" stop-color="#2AC0C6"/>
<stop offset="0.86" stop-color="#28AAD2"/>
<stop offset="0.92" stop-color="#258FE0"/>
<stop offset="0.98" stop-color="#226FF2"/>
<stop offset="1" stop-color="#2165F8"/>
</linearGradient>
<linearGradient id="paint2_linear_737_1857" x1="507.787" y1="574.68" x2="507.787" y2="404.897" gradientUnits="userSpaceOnUse">
<stop stop-color="#2EE6B2"/>
<stop offset="0.74" stop-color="#2487E5"/>
<stop offset="1" stop-color="#2165F8"/>
</linearGradient>
<linearGradient id="paint3_linear_737_1857" x1="193.833" y1="452.204" x2="180.701" y2="500.925" gradientUnits="userSpaceOnUse">
<stop stop-color="#2165F8"/>
<stop offset="1" stop-color="#2EE6B2"/>
</linearGradient>
<linearGradient id="paint4_linear_737_1857" x1="493.528" y1="185.02" x2="493.528" y2="224.266" gradientUnits="userSpaceOnUse">
<stop stop-color="#2165F8"/>
<stop offset="1" stop-color="#2EE6B2"/>
</linearGradient>
<linearGradient id="paint5_linear_737_1857" x1="174.559" y1="101.715" x2="184.56" y2="132.362" gradientUnits="userSpaceOnUse">
<stop stop-color="#2165F8"/>
<stop offset="1" stop-color="#2EE6B2"/>
</linearGradient>
<linearGradient id="paint6_linear_737_1857" x1="69.9304" y1="372.61" x2="59.3171" y2="395.499" gradientUnits="userSpaceOnUse">
<stop stop-color="#2165F8"/>
<stop offset="1" stop-color="#2EE6B2"/>
</linearGradient>
<linearGradient id="paint7_linear_737_1857" x1="635.092" y1="609.722" x2="635.092" y2="662.985" gradientUnits="userSpaceOnUse">
<stop stop-color="#2165F8"/>
<stop offset="1" stop-color="#2EE6B2"/>
</linearGradient>
<linearGradient id="paint8_linear_737_1857" x1="379.992" y1="75.6895" x2="379.992" y2="114.936" gradientUnits="userSpaceOnUse">
<stop stop-color="#2165F8"/>
<stop offset="1" stop-color="#2EE6B2"/>
</linearGradient>
<linearGradient id="paint9_linear_737_1857" x1="61.2979" y1="563.466" x2="61.2979" y2="579.237" gradientUnits="userSpaceOnUse">
<stop stop-color="#2165F8"/>
<stop offset="1" stop-color="#2EE6B2"/>
</linearGradient>
<linearGradient id="paint10_linear_737_1857" x1="306.589" y1="0" x2="306.589" y2="15.7703" gradientUnits="userSpaceOnUse">
<stop stop-color="#2165F8"/>
<stop offset="1" stop-color="#2EE6B2"/>
</linearGradient>
</defs>
</svg>
