<?xml version="1.0" encoding="UTF-8"?>
<svg id="Calque_2" data-name="Calque 2" xmlns="http://www.w3.org/2000/svg" viewBox="0 0 566.93 566.93">
  <defs>
    <style>
      .cls-1 {
        fill: #fff;
        stroke-width: 0px;
      }
    </style>
  </defs>
  <g id="Calque_2-2" data-name="Calque 2">
    <g>
      <g>
        <path class="cls-1" d="M388.08,175.18c0,2.68-.22,5.37-.73,8.05-2.39,13.92-11.17,26.03-24.58,34.01-12.98,9.86-28.69,17-50.95,20.84-4.75.82-8.48,1.21-12.83,2.02-1.06.2-2.04-.45-2.27-1.5-.87-3.96-2.76-12.07-3.48-15.42-.24-1.13.44-2.14,1.58-2.32,16.31-2.59,29.96-7.92,44.09-13.42,7.18-2.83,13.42-7.9,15.95-12.98,6.38-12.84.94-25.67-2.83-30.68-5-6.67-10.59-10.81-23.28-11.24-5-.22-10.59.87-16.61,2.97-1.16.44-4.93,2.68-7.47,4.13-1.38.87-2.68,1.6-3.63,2.1l-.65.72-1.01.07c-3.77,1.02-9.5-.72-10.81-5-1.81-5.8.8-8.92,3.26-10.52.44-.22,6.02-2.76,9.93-4.86,3.7-1.89,6.24-3.99,8.48-7.03,9.43-12.91,7.69-25.82,1.74-32.85-5.51-6.53-16.24-8.85-28.64-6.09-5.48,1.27-20.14,8.19-27.02,14.06-1.21,1.03-1.54,2.34-1.48,3.93.77,20.38,22.57,130.84,25.61,146.45.14.71-.09,1.39-.65,1.86-2.13,1.79-7.71,6.5-11.59,9.76-1.19,1-2.99.35-3.28-1.18-4.54-23.33-26.27-161.58-26.42-163.08-.12-1.19.38-2.64,1.01-3.77.98-1.76,14.37-14.78,26.34-20.73,11.82-5.8,22.92-8.41,36.04-8.41,9.28,0,22.41,4.57,28.28,12.18,9.64,12.33,10.15,26.03,1.38,43.95,5.44-.58,11.97-1.02,14.5-1.02,11.53,0,23.35,5.66,30.89,14.72,7.25,8.63,11.1,19.29,11.1,30.24Z"/>
        <path class="cls-1" d="M287.54,320.82c-3.72,3.43-9.35,8.65-11.55,10.64-.5.46-.71,1.12-.62,1.79,1.79,12.86,1.92,11.18,3.27,23.62.12,1.12,1.09,1.96,2.21,1.85,3.94-.39,10.66-1.31,14-1.76,1.12-.15,1.88-1.19,1.73-2.31-1.83-13.87-2.42-13.14-5.64-32.58-.27-1.6-2.19-2.35-3.38-1.25ZM302.36,426.12c-.13-3.17-.31-7.23-.64-12.57-.08-1.23-1.21-2.15-2.43-1.94-3.77.67-8.72,1.4-12.95,1.9-1.05.12-1.84,1.14-1.78,2.2.22,4.33.34,7.72.4,10.56l.07.87c.07,1.01,0,4.93,0,5,0,23.28-16.75,42.2-37.35,42.2-3.84,0-7.69-.72-11.39-2.03,8.12-5.08,14.36-13.85,15.95-23.06,1.45-8.05-.29-16.1-4.86-22.63-4.21-6.09-10.44-10.15-17.55-11.39-9.21-1.6-18.71,1.81-25.38,9.21-3.92,4.28-6.53,9.64-7.54,15.37-1.02,5.22-2.25,18.49,6.74,29.37,10.01,13.92,26.9,22.63,44.02,22.63,30.24,0,54.82-26.76,54.82-59.68,0-.51-.07-3.92-.15-6.02ZM359.14,312.82c-.22-3.7-2.03-7.25-5.58-11.1-.58-.65-1.16-1.09-7.61-5.29-8.99-6.02-25.89-17.19-37.56-26.61-3.48-2.9-8.63-2.83-12.04.15-2.03,1.74-5.08,4.13-8.05,6.53-.65.58-3.48,2.76-3.99,3.19-7.25,6.16-28.76,22.98-28.76,22.98-5.44,4.5-5.44,10.52-2.68,14.14,1.81,2.32,3.92,3.63,6.31,3.92,2.54.29,5.22-.72,7.9-2.9.22-.22,31.37-27.41,32.24-28.06,2.18-1.67,5.68-2.5,8.53-.65,3.87,2.51,24.97,17.27,29.89,21.37,2.17,1.81,3.16,4.99,3.09,8.18-.44,25.96-24.84,50.15-43.04,54.93-28.49,7.49-48.3-3.84-54.68-7.9-20.52-13.13-37.99-44.54-33.28-70.94,4.46-25.11,11.77-32.78,34.27-42.13.87-.4,1.39-1.3,1.2-2.24-.8-3.93-2.72-12.19-4.2-18.28-.27-1.13-1.47-1.82-2.59-1.52-38.22,10.2-56.44,33.45-59.44,70.21-2.32,28.35,13.05,60.33,37.42,77.74,17.77,12.69,38.04,24.26,79.66,17.29,35.01-5.86,59.86-35.2,62.69-69.36.29-3.26.58-8.19.29-13.63Z"/>
      </g>
      <path class="cls-1" d="M283.46,22.72c143.77,0,260.74,116.97,260.74,260.74s-116.97,260.74-260.74,260.74S22.72,427.24,22.72,283.46,139.69,22.72,283.46,22.72M283.46,0C126.91,0,0,126.91,0,283.46s126.91,283.46,283.46,283.46,283.46-126.91,283.46-283.46S440.02,0,283.46,0h0Z"/>
    </g>
  </g>
</svg>